<?xml version="1.0" encoding="UTF-8" standalone="no"?>
<!DOCTYPE svg PUBLIC "-//W3C//DTD SVG 1.1//EN"
 "http://www.w3.org/Graphics/SVG/1.1/DTD/svg11.dtd">
<!-- Generated by graphviz version 2.38.0 (20140413.2041)
 -->
<!-- Title: models_diagram Pages: 1 -->
<svg width="2592pt" height="966pt"
 viewBox="0.00 0.00 2591.50 966.00" xmlns="http://www.w3.org/2000/svg" xmlns:xlink="http://www.w3.org/1999/xlink">
<g id="graph0" class="graph" transform="scale(1 1) rotate(0) translate(4 962)">
<title>models_diagram</title>
<polygon fill="none" stroke="none" points="-4,4 -4,-962 2587.5,-962 2587.5,4 -4,4"/>
<!-- _diagram_info -->
<g id="node1" class="node"><title>_diagram_info</title>
<text text-anchor="start" x="8" y="-876.6" font-family="Times,serif" font-size="13.00">Models diagram</text>
<text text-anchor="start" x="8" y="-862.6" font-family="Times,serif" font-size="13.00">Date: Jun 01 2017 &#45; 15:05</text>
<text text-anchor="start" x="8" y="-848.6" font-family="Times,serif" font-size="13.00">Migration version: 20170531172419</text>
<text text-anchor="start" x="8" y="-834.6" font-family="Times,serif" font-size="13.00">Generated by RailRoady 1.5.2</text>
<text text-anchor="start" x="8" y="-820.6" font-family="Times,serif" font-size="13.00">http://railroady.prestonlee.com</text>
</g>
<!-- ApplicationRecord -->
<g id="node2" class="node"><title>ApplicationRecord</title>
<ellipse fill="none" stroke="black" cx="371.5" cy="-852" rx="96.6831" ry="18"/>
<text text-anchor="middle" x="371.5" y="-848.3" font-family="Times,serif" font-size="14.00">ApplicationRecord</text>
</g>
<!-- Bussiness::Product -->
<g id="node3" class="node"><title>Bussiness::Product</title>
<path fill="none" stroke="black" d="M498.5,-799C498.5,-799 644.5,-799 644.5,-799 650.5,-799 656.5,-805 656.5,-811 656.5,-811 656.5,-893 656.5,-893 656.5,-899 650.5,-905 644.5,-905 644.5,-905 498.5,-905 498.5,-905 492.5,-905 486.5,-899 486.5,-893 486.5,-893 486.5,-811 486.5,-811 486.5,-805 492.5,-799 498.5,-799"/>
<text text-anchor="middle" x="571.5" y="-889.8" font-family="Times,serif" font-size="14.00">Bussiness::Product</text>
<polyline fill="none" stroke="black" points="486.5,-882 656.5,-882 "/>
<text text-anchor="start" x="494.5" y="-866.8" font-family="Times,serif" font-size="14.00">id :bigint(20)</text>
<text text-anchor="start" x="494.5" y="-851.8" font-family="Times,serif" font-size="14.00">type_id :bigint(20)</text>
<text text-anchor="start" x="494.5" y="-836.8" font-family="Times,serif" font-size="14.00">price :int(11)</text>
<text text-anchor="start" x="494.5" y="-821.8" font-family="Times,serif" font-size="14.00">created_at :datetime</text>
<text text-anchor="start" x="494.5" y="-806.8" font-family="Times,serif" font-size="14.00">updated_at :datetime</text>
</g>
<!-- Bussiness::Type -->
<g id="node4" class="node"><title>Bussiness::Type</title>
<path fill="none" stroke="black" d="M686.5,-806.5C686.5,-806.5 832.5,-806.5 832.5,-806.5 838.5,-806.5 844.5,-812.5 844.5,-818.5 844.5,-818.5 844.5,-885.5 844.5,-885.5 844.5,-891.5 838.5,-897.5 832.5,-897.5 832.5,-897.5 686.5,-897.5 686.5,-897.5 680.5,-897.5 674.5,-891.5 674.5,-885.5 674.5,-885.5 674.5,-818.5 674.5,-818.5 674.5,-812.5 680.5,-806.5 686.5,-806.5"/>
<text text-anchor="middle" x="759.5" y="-882.3" font-family="Times,serif" font-size="14.00">Bussiness::Type</text>
<polyline fill="none" stroke="black" points="674.5,-874.5 844.5,-874.5 "/>
<text text-anchor="start" x="682.5" y="-859.3" font-family="Times,serif" font-size="14.00">id :bigint(20)</text>
<text text-anchor="start" x="682.5" y="-844.3" font-family="Times,serif" font-size="14.00">type :varchar(255)</text>
<text text-anchor="start" x="682.5" y="-829.3" font-family="Times,serif" font-size="14.00">created_at :datetime</text>
<text text-anchor="start" x="682.5" y="-814.3" font-family="Times,serif" font-size="14.00">updated_at :datetime</text>
</g>
<!-- Bussiness -->
<g id="node5" class="node"><title>Bussiness</title>
<polygon fill="none" stroke="black" stroke-dasharray="1,5" points="950.5,-870 862.5,-870 862.5,-834 950.5,-834 950.5,-870"/>
<text text-anchor="middle" x="906.5" y="-848.3" font-family="Times,serif" font-size="14.00">Bussiness</text>
</g>
<!-- General::Country -->
<g id="node6" class="node"><title>General::Country</title>
<path fill="none" stroke="black" d="M980.5,-791.5C980.5,-791.5 1176.5,-791.5 1176.5,-791.5 1182.5,-791.5 1188.5,-797.5 1188.5,-803.5 1188.5,-803.5 1188.5,-900.5 1188.5,-900.5 1188.5,-906.5 1182.5,-912.5 1176.5,-912.5 1176.5,-912.5 980.5,-912.5 980.5,-912.5 974.5,-912.5 968.5,-906.5 968.5,-900.5 968.5,-900.5 968.5,-803.5 968.5,-803.5 968.5,-797.5 974.5,-791.5 980.5,-791.5"/>
<text text-anchor="middle" x="1078.5" y="-897.3" font-family="Times,serif" font-size="14.00">General::Country</text>
<polyline fill="none" stroke="black" points="968.5,-889.5 1188.5,-889.5 "/>
<text text-anchor="start" x="976.5" y="-874.3" font-family="Times,serif" font-size="14.00">id :bigint(20)</text>
<text text-anchor="start" x="976.5" y="-859.3" font-family="Times,serif" font-size="14.00">name :varchar(255)</text>
<text text-anchor="start" x="976.5" y="-844.3" font-family="Times,serif" font-size="14.00">original_name :varchar(255)</text>
<text text-anchor="start" x="976.5" y="-829.3" font-family="Times,serif" font-size="14.00">image :varchar(255)</text>
<text text-anchor="start" x="976.5" y="-814.3" font-family="Times,serif" font-size="14.00">created_at :datetime</text>
<text text-anchor="start" x="976.5" y="-799.3" font-family="Times,serif" font-size="14.00">updated_at :datetime</text>
</g>
<!-- General -->
<g id="node7" class="node"><title>General</title>
<polygon fill="none" stroke="black" stroke-dasharray="1,5" points="1280,-870 1207,-870 1207,-834 1280,-834 1280,-870"/>
<text text-anchor="middle" x="1243.5" y="-848.3" font-family="Times,serif" font-size="14.00">General</text>
</g>
<!-- Security::ActivateAccountToken -->
<g id="node8" class="node"><title>Security::ActivateAccountToken</title>
<path fill="none" stroke="black" d="M1257.5,-189.5C1257.5,-189.5 1481.5,-189.5 1481.5,-189.5 1487.5,-189.5 1493.5,-195.5 1493.5,-201.5 1493.5,-201.5 1493.5,-298.5 1493.5,-298.5 1493.5,-304.5 1487.5,-310.5 1481.5,-310.5 1481.5,-310.5 1257.5,-310.5 1257.5,-310.5 1251.5,-310.5 1245.5,-304.5 1245.5,-298.5 1245.5,-298.5 1245.5,-201.5 1245.5,-201.5 1245.5,-195.5 1251.5,-189.5 1257.5,-189.5"/>
<text text-anchor="middle" x="1369.5" y="-295.3" font-family="Times,serif" font-size="14.00">Security::ActivateAccountToken</text>
<polyline fill="none" stroke="black" points="1245.5,-287.5 1493.5,-287.5 "/>
<text text-anchor="start" x="1253.5" y="-272.3" font-family="Times,serif" font-size="14.00">id :bigint(20)</text>
<text text-anchor="start" x="1253.5" y="-257.3" font-family="Times,serif" font-size="14.00">user_id :bigint(20)</text>
<text text-anchor="start" x="1253.5" y="-242.3" font-family="Times,serif" font-size="14.00">token :varchar(255)</text>
<text text-anchor="start" x="1253.5" y="-227.3" font-family="Times,serif" font-size="14.00">expiration :datetime</text>
<text text-anchor="start" x="1253.5" y="-212.3" font-family="Times,serif" font-size="14.00">created_at :datetime</text>
<text text-anchor="start" x="1253.5" y="-197.3" font-family="Times,serif" font-size="14.00">updated_at :datetime</text>
</g>
<!-- Security::InvalidToken -->
<g id="node9" class="node"><title>Security::InvalidToken</title>
<path fill="none" stroke="black" d="M1609.5,-799C1609.5,-799 1763.5,-799 1763.5,-799 1769.5,-799 1775.5,-805 1775.5,-811 1775.5,-811 1775.5,-893 1775.5,-893 1775.5,-899 1769.5,-905 1763.5,-905 1763.5,-905 1609.5,-905 1609.5,-905 1603.5,-905 1597.5,-899 1597.5,-893 1597.5,-893 1597.5,-811 1597.5,-811 1597.5,-805 1603.5,-799 1609.5,-799"/>
<text text-anchor="middle" x="1686.5" y="-889.8" font-family="Times,serif" font-size="14.00">Security::InvalidToken</text>
<polyline fill="none" stroke="black" points="1597.5,-882 1775.5,-882 "/>
<text text-anchor="start" x="1605.5" y="-866.8" font-family="Times,serif" font-size="14.00">id :bigint(20)</text>
<text text-anchor="start" x="1605.5" y="-851.8" font-family="Times,serif" font-size="14.00">token :varchar(255)</text>
<text text-anchor="start" x="1605.5" y="-836.8" font-family="Times,serif" font-size="14.00">expiration :datetime</text>
<text text-anchor="start" x="1605.5" y="-821.8" font-family="Times,serif" font-size="14.00">created_at :datetime</text>
<text text-anchor="start" x="1605.5" y="-806.8" font-family="Times,serif" font-size="14.00">updated_at :datetime</text>
</g>
<!-- Security::ResetPasswordToken -->
<g id="node10" class="node"><title>Security::ResetPasswordToken</title>
<path fill="none" stroke="black" d="M1524,-189.5C1524,-189.5 1737,-189.5 1737,-189.5 1743,-189.5 1749,-195.5 1749,-201.5 1749,-201.5 1749,-298.5 1749,-298.5 1749,-304.5 1743,-310.5 1737,-310.5 1737,-310.5 1524,-310.5 1524,-310.5 1518,-310.5 1512,-304.5 1512,-298.5 1512,-298.5 1512,-201.5 1512,-201.5 1512,-195.5 1518,-189.5 1524,-189.5"/>
<text text-anchor="middle" x="1630.5" y="-295.3" font-family="Times,serif" font-size="14.00">Security::ResetPasswordToken</text>
<polyline fill="none" stroke="black" points="1512,-287.5 1749,-287.5 "/>
<text text-anchor="start" x="1520" y="-272.3" font-family="Times,serif" font-size="14.00">id :bigint(20)</text>
<text text-anchor="start" x="1520" y="-257.3" font-family="Times,serif" font-size="14.00">user_id :bigint(20)</text>
<text text-anchor="start" x="1520" y="-242.3" font-family="Times,serif" font-size="14.00">token :varchar(255)</text>
<text text-anchor="start" x="1520" y="-227.3" font-family="Times,serif" font-size="14.00">expiration :datetime</text>
<text text-anchor="start" x="1520" y="-212.3" font-family="Times,serif" font-size="14.00">created_at :datetime</text>
<text text-anchor="start" x="1520" y="-197.3" font-family="Times,serif" font-size="14.00">updated_at :datetime</text>
</g>
<!-- Security::Role -->
<g id="node11" class="node"><title>Security::Role</title>
<path fill="none" stroke="black" d="M1310.5,-806.5C1310.5,-806.5 1456.5,-806.5 1456.5,-806.5 1462.5,-806.5 1468.5,-812.5 1468.5,-818.5 1468.5,-818.5 1468.5,-885.5 1468.5,-885.5 1468.5,-891.5 1462.5,-897.5 1456.5,-897.5 1456.5,-897.5 1310.5,-897.5 1310.5,-897.5 1304.5,-897.5 1298.5,-891.5 1298.5,-885.5 1298.5,-885.5 1298.5,-818.5 1298.5,-818.5 1298.5,-812.5 1304.5,-806.5 1310.5,-806.5"/>
<text text-anchor="middle" x="1383.5" y="-882.3" font-family="Times,serif" font-size="14.00">Security::Role</text>
<polyline fill="none" stroke="black" points="1298.5,-874.5 1468.5,-874.5 "/>
<text text-anchor="start" x="1306.5" y="-859.3" font-family="Times,serif" font-size="14.00">id :bigint(20)</text>
<text text-anchor="start" x="1306.5" y="-844.3" font-family="Times,serif" font-size="14.00">role :varchar(255)</text>
<text text-anchor="start" x="1306.5" y="-829.3" font-family="Times,serif" font-size="14.00">created_at :datetime</text>
<text text-anchor="start" x="1306.5" y="-814.3" font-family="Times,serif" font-size="14.00">updated_at :datetime</text>
</g>
<!-- Security::User -->
<g id="node12" class="node"><title>Security::User</title>
<path fill="none" stroke="black" d="M1273,-377.5C1273,-377.5 1494,-377.5 1494,-377.5 1500,-377.5 1506,-383.5 1506,-389.5 1506,-389.5 1506,-696.5 1506,-696.5 1506,-702.5 1500,-708.5 1494,-708.5 1494,-708.5 1273,-708.5 1273,-708.5 1267,-708.5 1261,-702.5 1261,-696.5 1261,-696.5 1261,-389.5 1261,-389.5 1261,-383.5 1267,-377.5 1273,-377.5"/>
<text text-anchor="middle" x="1383.5" y="-693.3" font-family="Times,serif" font-size="14.00">Security::User</text>
<polyline fill="none" stroke="black" points="1261,-685.5 1506,-685.5 "/>
<text text-anchor="start" x="1269" y="-670.3" font-family="Times,serif" font-size="14.00">id :bigint(20)</text>
<text text-anchor="start" x="1269" y="-655.3" font-family="Times,serif" font-size="14.00">user_name :varchar(255)</text>
<text text-anchor="start" x="1269" y="-640.3" font-family="Times,serif" font-size="14.00">password_digest :varchar(255)</text>
<text text-anchor="start" x="1269" y="-625.3" font-family="Times,serif" font-size="14.00">email :varchar(255)</text>
<text text-anchor="start" x="1269" y="-610.3" font-family="Times,serif" font-size="14.00">phone_number :varchar(255)</text>
<text text-anchor="start" x="1269" y="-595.3" font-family="Times,serif" font-size="14.00">address :varchar(255)</text>
<text text-anchor="start" x="1269" y="-580.3" font-family="Times,serif" font-size="14.00">activated :tinyint(1)</text>
<text text-anchor="start" x="1269" y="-565.3" font-family="Times,serif" font-size="14.00">first_name :varchar(255)</text>
<text text-anchor="start" x="1269" y="-550.3" font-family="Times,serif" font-size="14.00">last_name :varchar(255)</text>
<text text-anchor="start" x="1269" y="-535.3" font-family="Times,serif" font-size="14.00">profile_image_url :varchar(255)</text>
<text text-anchor="start" x="1269" y="-520.3" font-family="Times,serif" font-size="14.00">birthday :date</text>
<text text-anchor="start" x="1269" y="-505.3" font-family="Times,serif" font-size="14.00">about :text</text>
<text text-anchor="start" x="1269" y="-490.3" font-family="Times,serif" font-size="14.00">signature :varchar(255)</text>
<text text-anchor="start" x="1269" y="-475.3" font-family="Times,serif" font-size="14.00">country_id :bigint(20)</text>
<text text-anchor="start" x="1269" y="-460.3" font-family="Times,serif" font-size="14.00">facebook_url :varchar(255)</text>
<text text-anchor="start" x="1269" y="-445.3" font-family="Times,serif" font-size="14.00">twitter_url :varchar(255)</text>
<text text-anchor="start" x="1269" y="-430.3" font-family="Times,serif" font-size="14.00">gmail_url :varchar(255)</text>
<text text-anchor="start" x="1269" y="-415.3" font-family="Times,serif" font-size="14.00">password_updated_at :datetime</text>
<text text-anchor="start" x="1269" y="-400.3" font-family="Times,serif" font-size="14.00">created_at :datetime</text>
<text text-anchor="start" x="1269" y="-385.3" font-family="Times,serif" font-size="14.00">updated_at :datetime</text>
</g>
<!-- Security::Role&#45;&gt;Security::User -->
<g id="edge1" class="edge"><title>Security::Role&#45;&gt;Security::User</title>
<path fill="none" stroke="#caa56d" d="M1383.5,-796.077C1383.5,-773.914 1383.5,-746.999 1383.5,-719.114"/>
<polygon fill="#caa56d" stroke="#caa56d" points="1383.5,-796.36 1379,-806.36 1383.5,-801.36 1383.5,-806.36 1383.5,-806.36 1383.5,-806.36 1383.5,-801.36 1388,-806.36 1383.5,-796.36 1383.5,-796.36"/>
<polygon fill="#caa56d" stroke="#caa56d" points="1383.5,-718.803 1388,-708.803 1383.5,-713.803 1383.5,-708.803 1383.5,-708.803 1383.5,-708.803 1383.5,-713.803 1379,-708.803 1383.5,-718.803 1383.5,-718.803"/>
</g>
<!-- Security::User&#45;&gt;Security::ActivateAccountToken -->
<g id="edge3" class="edge"><title>Security::User&#45;&gt;Security::ActivateAccountToken</title>
<path fill="none" stroke="#94be31" d="M1375.19,-369.313C1374.37,-352.309 1373.58,-335.82 1372.86,-320.818"/>
<ellipse fill="none" stroke="#94be31" cx="1375.39" cy="-373.372" rx="4" ry="4"/>
<polygon fill="#94be31" stroke="#94be31" points="1372.85,-320.67 1376.87,-310.466 1372.61,-315.676 1372.37,-310.682 1372.37,-310.682 1372.37,-310.682 1372.61,-315.676 1367.88,-310.898 1372.85,-320.67 1372.85,-320.67"/>
</g>
<!-- Security::User&#45;&gt;Security::ResetPasswordToken -->
<g id="edge2" class="edge"><title>Security::User&#45;&gt;Security::ResetPasswordToken</title>
<path fill="none" stroke="#8da76b" d="M1511.46,-391.244C1533.19,-365.646 1554.73,-340.266 1573.39,-318.278"/>
<ellipse fill="none" stroke="#8da76b" cx="1508.86" cy="-394.303" rx="4.00002" ry="4.00002"/>
<polygon fill="#8da76b" stroke="#8da76b" points="1573.4,-318.271 1583.3,-313.559 1576.64,-314.459 1579.87,-310.647 1579.87,-310.647 1579.87,-310.647 1576.64,-314.459 1576.44,-307.735 1573.4,-318.271 1573.4,-318.271"/>
</g>
<!-- Security -->
<g id="node13" class="node"><title>Security</title>
<polygon fill="none" stroke="black" stroke-dasharray="1,5" points="1926,-870 1849,-870 1849,-834 1926,-834 1926,-870"/>
<text text-anchor="middle" x="1887.5" y="-848.3" font-family="Times,serif" font-size="14.00">Security</text>
</g>
<!-- Vndb::Character -->
<g id="node14" class="node"><title>Vndb::Character</title>
<path fill="none" stroke="black" d="M1979.5,-400C1979.5,-400 2175.5,-400 2175.5,-400 2181.5,-400 2187.5,-406 2187.5,-412 2187.5,-412 2187.5,-674 2187.5,-674 2187.5,-680 2181.5,-686 2175.5,-686 2175.5,-686 1979.5,-686 1979.5,-686 1973.5,-686 1967.5,-680 1967.5,-674 1967.5,-674 1967.5,-412 1967.5,-412 1967.5,-406 1973.5,-400 1979.5,-400"/>
<text text-anchor="middle" x="2077.5" y="-670.8" font-family="Times,serif" font-size="14.00">Vndb::Character</text>
<polyline fill="none" stroke="black" points="1967.5,-663 2187.5,-663 "/>
<text text-anchor="start" x="1975.5" y="-647.8" font-family="Times,serif" font-size="14.00">id :bigint(20)</text>
<text text-anchor="start" x="1975.5" y="-632.8" font-family="Times,serif" font-size="14.00">novel_id :bigint(20)</text>
<text text-anchor="start" x="1975.5" y="-617.8" font-family="Times,serif" font-size="14.00">name :varchar(255)</text>
<text text-anchor="start" x="1975.5" y="-602.8" font-family="Times,serif" font-size="14.00">original_name :varchar(255)</text>
<text text-anchor="start" x="1975.5" y="-587.8" font-family="Times,serif" font-size="14.00">birthday_day :int(11)</text>
<text text-anchor="start" x="1975.5" y="-572.8" font-family="Times,serif" font-size="14.00">birthday_month :int(11)</text>
<text text-anchor="start" x="1975.5" y="-557.8" font-family="Times,serif" font-size="14.00">gender :varchar(255)</text>
<text text-anchor="start" x="1975.5" y="-542.8" font-family="Times,serif" font-size="14.00">weight :int(11)</text>
<text text-anchor="start" x="1975.5" y="-527.8" font-family="Times,serif" font-size="14.00">height :int(11)</text>
<text text-anchor="start" x="1975.5" y="-512.8" font-family="Times,serif" font-size="14.00">bust :int(11)</text>
<text text-anchor="start" x="1975.5" y="-497.8" font-family="Times,serif" font-size="14.00">waist :int(11)</text>
<text text-anchor="start" x="1975.5" y="-482.8" font-family="Times,serif" font-size="14.00">hip :int(11)</text>
<text text-anchor="start" x="1975.5" y="-467.8" font-family="Times,serif" font-size="14.00">blood_type :varchar(255)</text>
<text text-anchor="start" x="1975.5" y="-452.8" font-family="Times,serif" font-size="14.00">image :varchar(255)</text>
<text text-anchor="start" x="1975.5" y="-437.8" font-family="Times,serif" font-size="14.00">role :int(11)</text>
<text text-anchor="start" x="1975.5" y="-422.8" font-family="Times,serif" font-size="14.00">created_at :datetime</text>
<text text-anchor="start" x="1975.5" y="-407.8" font-family="Times,serif" font-size="14.00">updated_at :datetime</text>
</g>
<!-- Vndb::Person -->
<g id="node17" class="node"><title>Vndb::Person</title>
<path fill="none" stroke="black" d="M1855.5,-174.5C1855.5,-174.5 2051.5,-174.5 2051.5,-174.5 2057.5,-174.5 2063.5,-180.5 2063.5,-186.5 2063.5,-186.5 2063.5,-313.5 2063.5,-313.5 2063.5,-319.5 2057.5,-325.5 2051.5,-325.5 2051.5,-325.5 1855.5,-325.5 1855.5,-325.5 1849.5,-325.5 1843.5,-319.5 1843.5,-313.5 1843.5,-313.5 1843.5,-186.5 1843.5,-186.5 1843.5,-180.5 1849.5,-174.5 1855.5,-174.5"/>
<text text-anchor="middle" x="1953.5" y="-310.3" font-family="Times,serif" font-size="14.00">Vndb::Person</text>
<polyline fill="none" stroke="black" points="1843.5,-302.5 2063.5,-302.5 "/>
<text text-anchor="start" x="1851.5" y="-287.3" font-family="Times,serif" font-size="14.00">id :bigint(20)</text>
<text text-anchor="start" x="1851.5" y="-272.3" font-family="Times,serif" font-size="14.00">country_id :bigint(20)</text>
<text text-anchor="start" x="1851.5" y="-257.3" font-family="Times,serif" font-size="14.00">name :varchar(255)</text>
<text text-anchor="start" x="1851.5" y="-242.3" font-family="Times,serif" font-size="14.00">original_name :varchar(255)</text>
<text text-anchor="start" x="1851.5" y="-227.3" font-family="Times,serif" font-size="14.00">birthday :varchar(255)</text>
<text text-anchor="start" x="1851.5" y="-212.3" font-family="Times,serif" font-size="14.00">link :varchar(255)</text>
<text text-anchor="start" x="1851.5" y="-197.3" font-family="Times,serif" font-size="14.00">created_at :datetime</text>
<text text-anchor="start" x="1851.5" y="-182.3" font-family="Times,serif" font-size="14.00">updated_at :datetime</text>
</g>
<!-- Vndb::Character&#45;&gt;Vndb::Person -->
<g id="edge5" class="edge"><title>Vndb::Character&#45;&gt;Vndb::Person</title>
<path fill="none" stroke="#135f1d" d="M2012.98,-390.58C2004.87,-371.545 1996.81,-352.645 1989.37,-335.187"/>
<polygon fill="#135f1d" stroke="#135f1d" points="2013.03,-390.71 2012.81,-401.674 2014.99,-395.31 2016.95,-399.91 2016.95,-399.91 2016.95,-399.91 2014.99,-395.31 2021.09,-398.146 2013.03,-390.71 2013.03,-390.71"/>
<polygon fill="#135f1d" stroke="#135f1d" points="1989.23,-334.844 1989.45,-323.88 1987.27,-330.244 1985.31,-325.644 1985.31,-325.644 1985.31,-325.644 1987.27,-330.244 1981.17,-327.409 1989.23,-334.844 1989.23,-334.844"/>
</g>
<!-- Vndb::VoiceActress -->
<g id="node21" class="node"><title>Vndb::VoiceActress</title>
<path fill="none" stroke="black" d="M1990,-8C1990,-8 2153,-8 2153,-8 2159,-8 2165,-14 2165,-20 2165,-20 2165,-117 2165,-117 2165,-123 2159,-129 2153,-129 2153,-129 1990,-129 1990,-129 1984,-129 1978,-123 1978,-117 1978,-117 1978,-20 1978,-20 1978,-14 1984,-8 1990,-8"/>
<text text-anchor="middle" x="2071.5" y="-113.8" font-family="Times,serif" font-size="14.00">Vndb::VoiceActress</text>
<polyline fill="none" stroke="black" points="1978,-106 2165,-106 "/>
<text text-anchor="start" x="1986" y="-90.8" font-family="Times,serif" font-size="14.00">id :bigint(20)</text>
<text text-anchor="start" x="1986" y="-75.8" font-family="Times,serif" font-size="14.00">person_id :bigint(20)</text>
<text text-anchor="start" x="1986" y="-60.8" font-family="Times,serif" font-size="14.00">character_id :bigint(20)</text>
<text text-anchor="start" x="1986" y="-45.8" font-family="Times,serif" font-size="14.00">alias :varchar(255)</text>
<text text-anchor="start" x="1986" y="-30.8" font-family="Times,serif" font-size="14.00">created_at :datetime</text>
<text text-anchor="start" x="1986" y="-15.8" font-family="Times,serif" font-size="14.00">updated_at :datetime</text>
</g>
<!-- Vndb::Character&#45;&gt;Vndb::VoiceActress -->
<g id="edge4" class="edge"><title>Vndb::Character&#45;&gt;Vndb::VoiceActress</title>
<path fill="none" stroke="#74430e" d="M2075.59,-391.905C2074.52,-307.378 2073.23,-205.801 2072.39,-139.553"/>
<ellipse fill="none" stroke="#74430e" cx="2075.64" cy="-395.914" rx="4" ry="4"/>
<polygon fill="#74430e" stroke="#74430e" points="2072.39,-139.232 2076.76,-129.175 2072.32,-134.232 2072.26,-129.233 2072.26,-129.233 2072.26,-129.233 2072.32,-134.232 2067.76,-129.29 2072.39,-139.232 2072.39,-139.232"/>
</g>
<!-- Vndb::Company -->
<g id="node15" class="node"><title>Vndb::Company</title>
<path fill="none" stroke="black" d="M2181.5,-182C2181.5,-182 2377.5,-182 2377.5,-182 2383.5,-182 2389.5,-188 2389.5,-194 2389.5,-194 2389.5,-306 2389.5,-306 2389.5,-312 2383.5,-318 2377.5,-318 2377.5,-318 2181.5,-318 2181.5,-318 2175.5,-318 2169.5,-312 2169.5,-306 2169.5,-306 2169.5,-194 2169.5,-194 2169.5,-188 2175.5,-182 2181.5,-182"/>
<text text-anchor="middle" x="2279.5" y="-302.8" font-family="Times,serif" font-size="14.00">Vndb::Company</text>
<polyline fill="none" stroke="black" points="2169.5,-295 2389.5,-295 "/>
<text text-anchor="start" x="2177.5" y="-279.8" font-family="Times,serif" font-size="14.00">id :bigint(20)</text>
<text text-anchor="start" x="2177.5" y="-264.8" font-family="Times,serif" font-size="14.00">name :varchar(255)</text>
<text text-anchor="start" x="2177.5" y="-249.8" font-family="Times,serif" font-size="14.00">original_name :varchar(255)</text>
<text text-anchor="start" x="2177.5" y="-234.8" font-family="Times,serif" font-size="14.00">country_id :bigint(20)</text>
<text text-anchor="start" x="2177.5" y="-219.8" font-family="Times,serif" font-size="14.00">link :varchar(255)</text>
<text text-anchor="start" x="2177.5" y="-204.8" font-family="Times,serif" font-size="14.00">created_at :datetime</text>
<text text-anchor="start" x="2177.5" y="-189.8" font-family="Times,serif" font-size="14.00">updated_at :datetime</text>
</g>
<!-- Vndb::Release -->
<g id="node18" class="node"><title>Vndb::Release</title>
<path fill="none" stroke="black" d="M2218,-467.5C2218,-467.5 2383,-467.5 2383,-467.5 2389,-467.5 2395,-473.5 2395,-479.5 2395,-479.5 2395,-606.5 2395,-606.5 2395,-612.5 2389,-618.5 2383,-618.5 2383,-618.5 2218,-618.5 2218,-618.5 2212,-618.5 2206,-612.5 2206,-606.5 2206,-606.5 2206,-479.5 2206,-479.5 2206,-473.5 2212,-467.5 2218,-467.5"/>
<text text-anchor="middle" x="2300.5" y="-603.3" font-family="Times,serif" font-size="14.00">Vndb::Release</text>
<polyline fill="none" stroke="black" points="2206,-595.5 2395,-595.5 "/>
<text text-anchor="start" x="2214" y="-580.3" font-family="Times,serif" font-size="14.00">id :bigint(20)</text>
<text text-anchor="start" x="2214" y="-565.3" font-family="Times,serif" font-size="14.00">novel_id :bigint(20)</text>
<text text-anchor="start" x="2214" y="-550.3" font-family="Times,serif" font-size="14.00">voiced :int(11)</text>
<text text-anchor="start" x="2214" y="-535.3" font-family="Times,serif" font-size="14.00">animation_story :int(11)</text>
<text text-anchor="start" x="2214" y="-520.3" font-family="Times,serif" font-size="14.00">animation_ero :int(11)</text>
<text text-anchor="start" x="2214" y="-505.3" font-family="Times,serif" font-size="14.00">released :date</text>
<text text-anchor="start" x="2214" y="-490.3" font-family="Times,serif" font-size="14.00">created_at :datetime</text>
<text text-anchor="start" x="2214" y="-475.3" font-family="Times,serif" font-size="14.00">updated_at :datetime</text>
</g>
<!-- Vndb::Company&#45;&gt;Vndb::Release -->
<g id="edge6" class="edge"><title>Vndb::Company&#45;&gt;Vndb::Release</title>
<path fill="none" stroke="#888570" d="M2228.98,-327.935C2226.35,-338.115 2225.51,-348.624 2227.5,-359 2233.93,-392.486 2246.42,-427.642 2259.28,-458.09"/>
<polygon fill="#888570" stroke="#888570" points="2229.02,-327.828 2236.31,-319.642 2230.52,-323.059 2232.02,-318.29 2232.02,-318.29 2232.02,-318.29 2230.52,-323.059 2227.73,-316.938 2229.02,-327.828 2229.02,-327.828"/>
<polygon fill="#888570" stroke="#888570" points="2259.33,-458.195 2259.14,-469.159 2261.3,-462.788 2263.28,-467.381 2263.28,-467.381 2263.28,-467.381 2261.3,-462.788 2267.41,-465.604 2259.33,-458.195 2259.33,-458.195"/>
<text text-anchor="middle" x="2268" y="-347.8" font-family="Times,serif" font-size="14.00">developeds</text>
</g>
<!-- Vndb::Company&#45;&gt;Vndb::Release -->
<g id="edge7" class="edge"><title>Vndb::Company&#45;&gt;Vndb::Release</title>
<path fill="none" stroke="#a2007a" d="M2305.52,-328.344C2306.7,-333.603 2307.72,-338.855 2308.5,-344 2314.11,-380.837 2313.54,-421.945 2311.02,-457.117"/>
<polygon fill="#a2007a" stroke="#a2007a" points="2305.43,-327.966 2307.45,-317.187 2304.25,-323.107 2303.07,-318.248 2303.07,-318.248 2303.07,-318.248 2304.25,-323.107 2298.7,-319.31 2305.43,-327.966 2305.43,-327.966"/>
<polygon fill="#a2007a" stroke="#a2007a" points="2311,-457.38 2305.73,-466.998 2310.61,-462.364 2310.22,-467.349 2310.22,-467.349 2310.22,-467.349 2310.61,-462.364 2314.7,-467.7 2311,-457.38 2311,-457.38"/>
<text text-anchor="middle" x="2348.5" y="-347.8" font-family="Times,serif" font-size="14.00">publisheds</text>
</g>
<!-- Vndb::Novel -->
<g id="node16" class="node"><title>Vndb::Novel</title>
<path fill="none" stroke="black" d="M1984.5,-746.5C1984.5,-746.5 2170.5,-746.5 2170.5,-746.5 2176.5,-746.5 2182.5,-752.5 2182.5,-758.5 2182.5,-758.5 2182.5,-945.5 2182.5,-945.5 2182.5,-951.5 2176.5,-957.5 2170.5,-957.5 2170.5,-957.5 1984.5,-957.5 1984.5,-957.5 1978.5,-957.5 1972.5,-951.5 1972.5,-945.5 1972.5,-945.5 1972.5,-758.5 1972.5,-758.5 1972.5,-752.5 1978.5,-746.5 1984.5,-746.5"/>
<text text-anchor="middle" x="2077.5" y="-942.3" font-family="Times,serif" font-size="14.00">Vndb::Novel</text>
<polyline fill="none" stroke="black" points="1972.5,-934.5 2182.5,-934.5 "/>
<text text-anchor="start" x="1980.5" y="-919.3" font-family="Times,serif" font-size="14.00">id :bigint(20)</text>
<text text-anchor="start" x="1980.5" y="-904.3" font-family="Times,serif" font-size="14.00">product_id :bigint(20)</text>
<text text-anchor="start" x="1980.5" y="-889.3" font-family="Times,serif" font-size="14.00">title :varchar(255)</text>
<text text-anchor="start" x="1980.5" y="-874.3" font-family="Times,serif" font-size="14.00">original_title :varchar(255)</text>
<text text-anchor="start" x="1980.5" y="-859.3" font-family="Times,serif" font-size="14.00">aliases :varchar(255)</text>
<text text-anchor="start" x="1980.5" y="-844.3" font-family="Times,serif" font-size="14.00">length :int(11)</text>
<text text-anchor="start" x="1980.5" y="-829.3" font-family="Times,serif" font-size="14.00">description :text</text>
<text text-anchor="start" x="1980.5" y="-814.3" font-family="Times,serif" font-size="14.00">original_description :text</text>
<text text-anchor="start" x="1980.5" y="-799.3" font-family="Times,serif" font-size="14.00">image :varchar(255)</text>
<text text-anchor="start" x="1980.5" y="-784.3" font-family="Times,serif" font-size="14.00">image_nsfw :tinyint(1)</text>
<text text-anchor="start" x="1980.5" y="-769.3" font-family="Times,serif" font-size="14.00">created_at :datetime</text>
<text text-anchor="start" x="1980.5" y="-754.3" font-family="Times,serif" font-size="14.00">updated_at :datetime</text>
</g>
<!-- Vndb::Novel&#45;&gt;Vndb::Character -->
<g id="edge9" class="edge"><title>Vndb::Novel&#45;&gt;Vndb::Character</title>
<path fill="none" stroke="#cdfc72" d="M2077.5,-737.971C2077.5,-724.373 2077.5,-710.318 2077.5,-696.277"/>
<ellipse fill="none" stroke="#cdfc72" cx="2077.5" cy="-742.207" rx="4" ry="4"/>
<polygon fill="#cdfc72" stroke="#cdfc72" points="2077.5,-696.062 2082,-686.062 2077.5,-691.062 2077.5,-686.062 2077.5,-686.062 2077.5,-686.062 2077.5,-691.062 2073,-686.062 2077.5,-696.062 2077.5,-696.062"/>
</g>
<!-- Vndb::Novel&#45;&gt;Vndb::Person -->
<g id="edge11" class="edge"><title>Vndb::Novel&#45;&gt;Vndb::Person</title>
<path fill="none" stroke="#c5fa44" d="M1971.91,-737.453C1966.67,-728.235 1962.09,-718.716 1958.5,-709 1912.8,-585.408 1924.17,-429.914 1937.87,-335.605"/>
<polygon fill="#c5fa44" stroke="#c5fa44" points="1972.01,-737.613 1973.28,-748.505 1974.58,-741.904 1977.14,-746.195 1977.14,-746.195 1977.14,-746.195 1974.58,-741.904 1981.01,-743.885 1972.01,-737.613 1972.01,-737.613"/>
<polygon fill="#c5fa44" stroke="#c5fa44" points="1937.9,-335.434 1943.83,-326.209 1938.64,-330.489 1939.38,-325.544 1939.38,-325.544 1939.38,-325.544 1938.64,-330.489 1934.93,-324.878 1937.9,-335.434 1937.9,-335.434"/>
</g>
<!-- Vndb::Novel&#45;&gt;Vndb::Release -->
<g id="edge8" class="edge"><title>Vndb::Novel&#45;&gt;Vndb::Release</title>
<path fill="none" stroke="#46a4a4" d="M2172.92,-739.998C2181.07,-729.658 2189.05,-719.224 2196.5,-709 2215.4,-683.076 2234.56,-653.74 2251.19,-627.068"/>
<ellipse fill="none" stroke="#46a4a4" cx="2170.31" cy="-743.287" rx="4.00002" ry="4.00002"/>
<polygon fill="#46a4a4" stroke="#46a4a4" points="2251.23,-627.008 2260.32,-620.882 2253.86,-622.759 2256.5,-618.51 2256.5,-618.51 2256.5,-618.51 2253.86,-622.759 2252.67,-616.138 2251.23,-627.008 2251.23,-627.008"/>
</g>
<!-- Vndb::Staff -->
<g id="node19" class="node"><title>Vndb::Staff</title>
<path fill="none" stroke="black" d="M1777.5,-0.5C1777.5,-0.5 1929.5,-0.5 1929.5,-0.5 1935.5,-0.5 1941.5,-6.5 1941.5,-12.5 1941.5,-12.5 1941.5,-124.5 1941.5,-124.5 1941.5,-130.5 1935.5,-136.5 1929.5,-136.5 1929.5,-136.5 1777.5,-136.5 1777.5,-136.5 1771.5,-136.5 1765.5,-130.5 1765.5,-124.5 1765.5,-124.5 1765.5,-12.5 1765.5,-12.5 1765.5,-6.5 1771.5,-0.5 1777.5,-0.5"/>
<text text-anchor="middle" x="1853.5" y="-121.3" font-family="Times,serif" font-size="14.00">Vndb::Staff</text>
<polyline fill="none" stroke="black" points="1765.5,-113.5 1941.5,-113.5 "/>
<text text-anchor="start" x="1773.5" y="-98.3" font-family="Times,serif" font-size="14.00">id :bigint(20)</text>
<text text-anchor="start" x="1773.5" y="-83.3" font-family="Times,serif" font-size="14.00">person_id :bigint(20)</text>
<text text-anchor="start" x="1773.5" y="-68.3" font-family="Times,serif" font-size="14.00">novel_id :bigint(20)</text>
<text text-anchor="start" x="1773.5" y="-53.3" font-family="Times,serif" font-size="14.00">position :varchar(255)</text>
<text text-anchor="start" x="1773.5" y="-38.3" font-family="Times,serif" font-size="14.00">note :varchar(255)</text>
<text text-anchor="start" x="1773.5" y="-23.3" font-family="Times,serif" font-size="14.00">created_at :datetime</text>
<text text-anchor="start" x="1773.5" y="-8.3" font-family="Times,serif" font-size="14.00">updated_at :datetime</text>
</g>
<!-- Vndb::Novel&#45;&gt;Vndb::Staff -->
<g id="edge10" class="edge"><title>Vndb::Novel&#45;&gt;Vndb::Staff</title>
<path fill="none" stroke="#3f1056" d="M1966.34,-765.908C1949.3,-748.656 1933.43,-729.466 1921.5,-709 1800.16,-500.888 1812.87,-413.928 1834.5,-174 1835.3,-165.099 1836.48,-155.822 1837.87,-146.631"/>
<ellipse fill="none" stroke="#3f1056" cx="1969.32" cy="-768.866" rx="4.00002" ry="4.00002"/>
<polygon fill="#3f1056" stroke="#3f1056" points="1837.87,-146.59 1843.89,-137.42 1838.66,-141.652 1839.44,-136.714 1839.44,-136.714 1839.44,-136.714 1838.66,-141.652 1835,-136.007 1837.87,-146.59 1837.87,-146.59"/>
</g>
<!-- Vndb::Tag -->
<g id="node20" class="node"><title>Vndb::Tag</title>
<path fill="none" stroke="black" d="M2425.5,-497.5C2425.5,-497.5 2571.5,-497.5 2571.5,-497.5 2577.5,-497.5 2583.5,-503.5 2583.5,-509.5 2583.5,-509.5 2583.5,-576.5 2583.5,-576.5 2583.5,-582.5 2577.5,-588.5 2571.5,-588.5 2571.5,-588.5 2425.5,-588.5 2425.5,-588.5 2419.5,-588.5 2413.5,-582.5 2413.5,-576.5 2413.5,-576.5 2413.5,-509.5 2413.5,-509.5 2413.5,-503.5 2419.5,-497.5 2425.5,-497.5"/>
<text text-anchor="middle" x="2498.5" y="-573.3" font-family="Times,serif" font-size="14.00">Vndb::Tag</text>
<polyline fill="none" stroke="black" points="2413.5,-565.5 2583.5,-565.5 "/>
<text text-anchor="start" x="2421.5" y="-550.3" font-family="Times,serif" font-size="14.00">id :bigint(20)</text>
<text text-anchor="start" x="2421.5" y="-535.3" font-family="Times,serif" font-size="14.00">tag :varchar(255)</text>
<text text-anchor="start" x="2421.5" y="-520.3" font-family="Times,serif" font-size="14.00">created_at :datetime</text>
<text text-anchor="start" x="2421.5" y="-505.3" font-family="Times,serif" font-size="14.00">updated_at :datetime</text>
</g>
<!-- Vndb::Novel&#45;&gt;Vndb::Tag -->
<g id="edge12" class="edge"><title>Vndb::Novel&#45;&gt;Vndb::Tag</title>
<path fill="none" stroke="#0f788f" d="M2191.22,-746.14C2191.31,-746.093 2191.41,-746.046 2191.5,-746 2277.67,-703.502 2325.88,-764.238 2404.5,-709 2442.39,-682.38 2467,-635.305 2481.49,-598.232"/>
<polygon fill="#0f788f" stroke="#0f788f" points="2191.35,-746.068 2180.41,-746.791 2186.94,-748.416 2182.52,-750.764 2182.52,-750.764 2182.52,-750.764 2186.94,-748.416 2184.64,-754.737 2191.35,-746.068 2191.35,-746.068"/>
<polygon fill="#0f788f" stroke="#0f788f" points="2481.61,-597.912 2489.35,-590.141 2483.38,-593.233 2485.14,-588.555 2485.14,-588.555 2485.14,-588.555 2483.38,-593.233 2480.93,-586.968 2481.61,-597.912 2481.61,-597.912"/>
</g>
<!-- Vndb::Person&#45;&gt;Vndb::Staff -->
<g id="edge14" class="edge"><title>Vndb::Person&#45;&gt;Vndb::Staff</title>
<path fill="none" stroke="#4f7bf2" d="M1908.02,-167.355C1903.99,-160.135 1899.93,-152.844 1895.94,-145.672"/>
<ellipse fill="none" stroke="#4f7bf2" cx="1910.01" cy="-170.941" rx="4.00002" ry="4.00002"/>
<polygon fill="#4f7bf2" stroke="#4f7bf2" points="1895.78,-145.4 1894.85,-134.474 1893.35,-141.032 1890.92,-136.664 1890.92,-136.664 1890.92,-136.664 1893.35,-141.032 1886.99,-138.854 1895.78,-145.4 1895.78,-145.4"/>
</g>
<!-- Vndb::Person&#45;&gt;Vndb::VoiceActress -->
<g id="edge13" class="edge"><title>Vndb::Person&#45;&gt;Vndb::VoiceActress</title>
<path fill="none" stroke="#ae7deb" d="M2006.97,-167.668C2013.57,-157.617 2020.27,-147.425 2026.73,-137.601"/>
<ellipse fill="none" stroke="#ae7deb" cx="2004.71" cy="-171.093" rx="4.00002" ry="4.00002"/>
<polygon fill="#ae7deb" stroke="#ae7deb" points="2026.84,-137.431 2036.1,-131.547 2029.59,-133.253 2032.34,-129.075 2032.34,-129.075 2032.34,-129.075 2029.59,-133.253 2028.58,-126.603 2026.84,-137.431 2026.84,-137.431"/>
</g>
<!-- Vndb::Release&#45;&gt;Vndb::Company -->
<g id="edge15" class="edge"><title>Vndb::Release&#45;&gt;Vndb::Company</title>
<path fill="none" stroke="#290e85" d="M2373.25,-458.278C2395.07,-422.948 2409.06,-381.411 2391.5,-344 2388.58,-337.775 2385.01,-331.822 2380.97,-326.154"/>
<polygon fill="#290e85" stroke="#290e85" points="2372.96,-458.716 2363.76,-464.682 2370.25,-462.918 2367.54,-467.12 2367.54,-467.12 2367.54,-467.12 2370.25,-462.918 2371.33,-469.559 2372.96,-458.716 2372.96,-458.716"/>
<polygon fill="#290e85" stroke="#290e85" points="2380.83,-325.977 2378.3,-315.309 2377.78,-322.017 2374.73,-318.056 2374.73,-318.056 2374.73,-318.056 2377.78,-322.017 2371.17,-320.802 2380.83,-325.977 2380.83,-325.977"/>
<text text-anchor="middle" x="2435" y="-347.8" font-family="Times,serif" font-size="14.00">developers</text>
</g>
<!-- Vndb::Release&#45;&gt;Vndb::Company -->
<g id="edge16" class="edge"><title>Vndb::Release&#45;&gt;Vndb::Company</title>
<path fill="none" stroke="#ab81e8" d="M2262.37,-458.453C2245.66,-429.367 2223.6,-398.638 2196.5,-377 2177.72,-362.001 2159.38,-378.622 2145.5,-359 2130.66,-338.02 2140.91,-318.947 2161.08,-302.867"/>
<polygon fill="#ab81e8" stroke="#ab81e8" points="2262.51,-458.688 2263.46,-469.612 2264.95,-463.051 2267.39,-467.414 2267.39,-467.414 2267.39,-467.414 2264.95,-463.051 2271.32,-465.216 2262.51,-458.688 2262.51,-458.688"/>
<polygon fill="#ab81e8" stroke="#ab81e8" points="2161.21,-302.775 2171.93,-300.479 2165.23,-299.814 2169.26,-296.853 2169.26,-296.853 2169.26,-296.853 2165.23,-299.814 2166.6,-293.227 2161.21,-302.775 2161.21,-302.775"/>
<text text-anchor="middle" x="2183.5" y="-347.8" font-family="Times,serif" font-size="14.00">publishers</text>
</g>
<!-- Vndb -->
<g id="node22" class="node"><title>Vndb</title>
<polygon fill="none" stroke="black" stroke-dasharray="1,5" points="2254.5,-870 2200.5,-870 2200.5,-834 2254.5,-834 2254.5,-870"/>
<text text-anchor="middle" x="2227.5" y="-848.3" font-family="Times,serif" font-size="14.00">Vndb</text>
</g>
</g>
</svg>
