<?xml version="1.0" encoding="UTF-8" standalone="no"?>
<!DOCTYPE svg PUBLIC "-//W3C//DTD SVG 1.1//EN"
 "http://www.w3.org/Graphics/SVG/1.1/DTD/svg11.dtd">
<!-- Generated by graphviz version 2.38.0 (20140413.2041)
 -->
<!-- Title: models_diagram Pages: 1 -->
<svg width="2539pt" height="1071pt"
 viewBox="0.00 0.00 2538.50 1071.00" xmlns="http://www.w3.org/2000/svg" xmlns:xlink="http://www.w3.org/1999/xlink">
<g id="graph0" class="graph" transform="scale(1 1) rotate(0) translate(4 1067)">
<title>models_diagram</title>
<polygon fill="none" stroke="none" points="-4,4 -4,-1067 2534.5,-1067 2534.5,4 -4,4"/>
<!-- _diagram_info -->
<g id="node1" class="node"><title>_diagram_info</title>
<text text-anchor="start" x="8" y="-981.6" font-family="Times,serif" font-size="13.00">Models diagram</text>
<text text-anchor="start" x="8" y="-967.6" font-family="Times,serif" font-size="13.00">Date: Jun 05 2017 &#45; 12:10</text>
<text text-anchor="start" x="8" y="-953.6" font-family="Times,serif" font-size="13.00">Migration version: 20170531172419</text>
<text text-anchor="start" x="8" y="-939.6" font-family="Times,serif" font-size="13.00">Generated by RailRoady 1.5.2</text>
<text text-anchor="start" x="8" y="-925.6" font-family="Times,serif" font-size="13.00">http://railroady.prestonlee.com</text>
</g>
<!-- ApplicationRecord -->
<g id="node2" class="node"><title>ApplicationRecord</title>
<ellipse fill="none" stroke="black" cx="371.5" cy="-957" rx="96.6831" ry="18"/>
<text text-anchor="middle" x="371.5" y="-953.3" font-family="Times,serif" font-size="14.00">ApplicationRecord</text>
</g>
<!-- Bussiness::Product -->
<g id="node3" class="node"><title>Bussiness::Product</title>
<path fill="none" stroke="black" d="M498.5,-904C498.5,-904 644.5,-904 644.5,-904 650.5,-904 656.5,-910 656.5,-916 656.5,-916 656.5,-998 656.5,-998 656.5,-1004 650.5,-1010 644.5,-1010 644.5,-1010 498.5,-1010 498.5,-1010 492.5,-1010 486.5,-1004 486.5,-998 486.5,-998 486.5,-916 486.5,-916 486.5,-910 492.5,-904 498.5,-904"/>
<text text-anchor="middle" x="571.5" y="-994.8" font-family="Times,serif" font-size="14.00">Bussiness::Product</text>
<polyline fill="none" stroke="black" points="486.5,-987 656.5,-987 "/>
<text text-anchor="start" x="494.5" y="-971.8" font-family="Times,serif" font-size="14.00">id :bigint(20)</text>
<text text-anchor="start" x="494.5" y="-956.8" font-family="Times,serif" font-size="14.00">type_id :bigint(20)</text>
<text text-anchor="start" x="494.5" y="-941.8" font-family="Times,serif" font-size="14.00">price :int(11)</text>
<text text-anchor="start" x="494.5" y="-926.8" font-family="Times,serif" font-size="14.00">created_at :datetime</text>
<text text-anchor="start" x="494.5" y="-911.8" font-family="Times,serif" font-size="14.00">updated_at :datetime</text>
</g>
<!-- Bussiness::Type -->
<g id="node4" class="node"><title>Bussiness::Type</title>
<path fill="none" stroke="black" d="M686.5,-911.5C686.5,-911.5 832.5,-911.5 832.5,-911.5 838.5,-911.5 844.5,-917.5 844.5,-923.5 844.5,-923.5 844.5,-990.5 844.5,-990.5 844.5,-996.5 838.5,-1002.5 832.5,-1002.5 832.5,-1002.5 686.5,-1002.5 686.5,-1002.5 680.5,-1002.5 674.5,-996.5 674.5,-990.5 674.5,-990.5 674.5,-923.5 674.5,-923.5 674.5,-917.5 680.5,-911.5 686.5,-911.5"/>
<text text-anchor="middle" x="759.5" y="-987.3" font-family="Times,serif" font-size="14.00">Bussiness::Type</text>
<polyline fill="none" stroke="black" points="674.5,-979.5 844.5,-979.5 "/>
<text text-anchor="start" x="682.5" y="-964.3" font-family="Times,serif" font-size="14.00">id :bigint(20)</text>
<text text-anchor="start" x="682.5" y="-949.3" font-family="Times,serif" font-size="14.00">type :varchar(255)</text>
<text text-anchor="start" x="682.5" y="-934.3" font-family="Times,serif" font-size="14.00">created_at :datetime</text>
<text text-anchor="start" x="682.5" y="-919.3" font-family="Times,serif" font-size="14.00">updated_at :datetime</text>
</g>
<!-- Bussiness -->
<g id="node5" class="node"><title>Bussiness</title>
<polygon fill="none" stroke="black" stroke-dasharray="1,5" points="950.5,-975 862.5,-975 862.5,-939 950.5,-939 950.5,-975"/>
<text text-anchor="middle" x="906.5" y="-953.3" font-family="Times,serif" font-size="14.00">Bussiness</text>
</g>
<!-- General::Country -->
<g id="node6" class="node"><title>General::Country</title>
<path fill="none" stroke="black" d="M980.5,-896.5C980.5,-896.5 1138.5,-896.5 1138.5,-896.5 1144.5,-896.5 1150.5,-902.5 1150.5,-908.5 1150.5,-908.5 1150.5,-1005.5 1150.5,-1005.5 1150.5,-1011.5 1144.5,-1017.5 1138.5,-1017.5 1138.5,-1017.5 980.5,-1017.5 980.5,-1017.5 974.5,-1017.5 968.5,-1011.5 968.5,-1005.5 968.5,-1005.5 968.5,-908.5 968.5,-908.5 968.5,-902.5 974.5,-896.5 980.5,-896.5"/>
<text text-anchor="middle" x="1059.5" y="-1002.3" font-family="Times,serif" font-size="14.00">General::Country</text>
<polyline fill="none" stroke="black" points="968.5,-994.5 1150.5,-994.5 "/>
<text text-anchor="start" x="976.5" y="-979.3" font-family="Times,serif" font-size="14.00">id :bigint(20)</text>
<text text-anchor="start" x="976.5" y="-964.3" font-family="Times,serif" font-size="14.00">name :varchar(255)</text>
<text text-anchor="start" x="976.5" y="-949.3" font-family="Times,serif" font-size="14.00">name_en :varchar(255)</text>
<text text-anchor="start" x="976.5" y="-934.3" font-family="Times,serif" font-size="14.00">image :varchar(255)</text>
<text text-anchor="start" x="976.5" y="-919.3" font-family="Times,serif" font-size="14.00">created_at :datetime</text>
<text text-anchor="start" x="976.5" y="-904.3" font-family="Times,serif" font-size="14.00">updated_at :datetime</text>
</g>
<!-- General -->
<g id="node7" class="node"><title>General</title>
<polygon fill="none" stroke="black" stroke-dasharray="1,5" points="1242,-975 1169,-975 1169,-939 1242,-939 1242,-975"/>
<text text-anchor="middle" x="1205.5" y="-953.3" font-family="Times,serif" font-size="14.00">General</text>
</g>
<!-- Security::ActivateAccountToken -->
<g id="node8" class="node"><title>Security::ActivateAccountToken</title>
<path fill="none" stroke="black" d="M1220.5,-249.5C1220.5,-249.5 1444.5,-249.5 1444.5,-249.5 1450.5,-249.5 1456.5,-255.5 1456.5,-261.5 1456.5,-261.5 1456.5,-358.5 1456.5,-358.5 1456.5,-364.5 1450.5,-370.5 1444.5,-370.5 1444.5,-370.5 1220.5,-370.5 1220.5,-370.5 1214.5,-370.5 1208.5,-364.5 1208.5,-358.5 1208.5,-358.5 1208.5,-261.5 1208.5,-261.5 1208.5,-255.5 1214.5,-249.5 1220.5,-249.5"/>
<text text-anchor="middle" x="1332.5" y="-355.3" font-family="Times,serif" font-size="14.00">Security::ActivateAccountToken</text>
<polyline fill="none" stroke="black" points="1208.5,-347.5 1456.5,-347.5 "/>
<text text-anchor="start" x="1216.5" y="-332.3" font-family="Times,serif" font-size="14.00">id :bigint(20)</text>
<text text-anchor="start" x="1216.5" y="-317.3" font-family="Times,serif" font-size="14.00">user_id :bigint(20)</text>
<text text-anchor="start" x="1216.5" y="-302.3" font-family="Times,serif" font-size="14.00">token :varchar(255)</text>
<text text-anchor="start" x="1216.5" y="-287.3" font-family="Times,serif" font-size="14.00">expiration :datetime</text>
<text text-anchor="start" x="1216.5" y="-272.3" font-family="Times,serif" font-size="14.00">created_at :datetime</text>
<text text-anchor="start" x="1216.5" y="-257.3" font-family="Times,serif" font-size="14.00">updated_at :datetime</text>
</g>
<!-- Security::InvalidToken -->
<g id="node9" class="node"><title>Security::InvalidToken</title>
<path fill="none" stroke="black" d="M1558.5,-904C1558.5,-904 1712.5,-904 1712.5,-904 1718.5,-904 1724.5,-910 1724.5,-916 1724.5,-916 1724.5,-998 1724.5,-998 1724.5,-1004 1718.5,-1010 1712.5,-1010 1712.5,-1010 1558.5,-1010 1558.5,-1010 1552.5,-1010 1546.5,-1004 1546.5,-998 1546.5,-998 1546.5,-916 1546.5,-916 1546.5,-910 1552.5,-904 1558.5,-904"/>
<text text-anchor="middle" x="1635.5" y="-994.8" font-family="Times,serif" font-size="14.00">Security::InvalidToken</text>
<polyline fill="none" stroke="black" points="1546.5,-987 1724.5,-987 "/>
<text text-anchor="start" x="1554.5" y="-971.8" font-family="Times,serif" font-size="14.00">id :bigint(20)</text>
<text text-anchor="start" x="1554.5" y="-956.8" font-family="Times,serif" font-size="14.00">token :varchar(255)</text>
<text text-anchor="start" x="1554.5" y="-941.8" font-family="Times,serif" font-size="14.00">expiration :datetime</text>
<text text-anchor="start" x="1554.5" y="-926.8" font-family="Times,serif" font-size="14.00">created_at :datetime</text>
<text text-anchor="start" x="1554.5" y="-911.8" font-family="Times,serif" font-size="14.00">updated_at :datetime</text>
</g>
<!-- Security::ResetPasswordToken -->
<g id="node10" class="node"><title>Security::ResetPasswordToken</title>
<path fill="none" stroke="black" d="M1487,-249.5C1487,-249.5 1700,-249.5 1700,-249.5 1706,-249.5 1712,-255.5 1712,-261.5 1712,-261.5 1712,-358.5 1712,-358.5 1712,-364.5 1706,-370.5 1700,-370.5 1700,-370.5 1487,-370.5 1487,-370.5 1481,-370.5 1475,-364.5 1475,-358.5 1475,-358.5 1475,-261.5 1475,-261.5 1475,-255.5 1481,-249.5 1487,-249.5"/>
<text text-anchor="middle" x="1593.5" y="-355.3" font-family="Times,serif" font-size="14.00">Security::ResetPasswordToken</text>
<polyline fill="none" stroke="black" points="1475,-347.5 1712,-347.5 "/>
<text text-anchor="start" x="1483" y="-332.3" font-family="Times,serif" font-size="14.00">id :bigint(20)</text>
<text text-anchor="start" x="1483" y="-317.3" font-family="Times,serif" font-size="14.00">user_id :bigint(20)</text>
<text text-anchor="start" x="1483" y="-302.3" font-family="Times,serif" font-size="14.00">token :varchar(255)</text>
<text text-anchor="start" x="1483" y="-287.3" font-family="Times,serif" font-size="14.00">expiration :datetime</text>
<text text-anchor="start" x="1483" y="-272.3" font-family="Times,serif" font-size="14.00">created_at :datetime</text>
<text text-anchor="start" x="1483" y="-257.3" font-family="Times,serif" font-size="14.00">updated_at :datetime</text>
</g>
<!-- Security::Role -->
<g id="node11" class="node"><title>Security::Role</title>
<path fill="none" stroke="black" d="M1272.5,-911.5C1272.5,-911.5 1418.5,-911.5 1418.5,-911.5 1424.5,-911.5 1430.5,-917.5 1430.5,-923.5 1430.5,-923.5 1430.5,-990.5 1430.5,-990.5 1430.5,-996.5 1424.5,-1002.5 1418.5,-1002.5 1418.5,-1002.5 1272.5,-1002.5 1272.5,-1002.5 1266.5,-1002.5 1260.5,-996.5 1260.5,-990.5 1260.5,-990.5 1260.5,-923.5 1260.5,-923.5 1260.5,-917.5 1266.5,-911.5 1272.5,-911.5"/>
<text text-anchor="middle" x="1345.5" y="-987.3" font-family="Times,serif" font-size="14.00">Security::Role</text>
<polyline fill="none" stroke="black" points="1260.5,-979.5 1430.5,-979.5 "/>
<text text-anchor="start" x="1268.5" y="-964.3" font-family="Times,serif" font-size="14.00">id :bigint(20)</text>
<text text-anchor="start" x="1268.5" y="-949.3" font-family="Times,serif" font-size="14.00">role :varchar(255)</text>
<text text-anchor="start" x="1268.5" y="-934.3" font-family="Times,serif" font-size="14.00">created_at :datetime</text>
<text text-anchor="start" x="1268.5" y="-919.3" font-family="Times,serif" font-size="14.00">updated_at :datetime</text>
</g>
<!-- Security::User -->
<g id="node12" class="node"><title>Security::User</title>
<path fill="none" stroke="black" d="M1235,-467.5C1235,-467.5 1456,-467.5 1456,-467.5 1462,-467.5 1468,-473.5 1468,-479.5 1468,-479.5 1468,-801.5 1468,-801.5 1468,-807.5 1462,-813.5 1456,-813.5 1456,-813.5 1235,-813.5 1235,-813.5 1229,-813.5 1223,-807.5 1223,-801.5 1223,-801.5 1223,-479.5 1223,-479.5 1223,-473.5 1229,-467.5 1235,-467.5"/>
<text text-anchor="middle" x="1345.5" y="-798.3" font-family="Times,serif" font-size="14.00">Security::User</text>
<polyline fill="none" stroke="black" points="1223,-790.5 1468,-790.5 "/>
<text text-anchor="start" x="1231" y="-775.3" font-family="Times,serif" font-size="14.00">id :bigint(20)</text>
<text text-anchor="start" x="1231" y="-760.3" font-family="Times,serif" font-size="14.00">user_name :varchar(255)</text>
<text text-anchor="start" x="1231" y="-745.3" font-family="Times,serif" font-size="14.00">password_digest :varchar(255)</text>
<text text-anchor="start" x="1231" y="-730.3" font-family="Times,serif" font-size="14.00">email :varchar(255)</text>
<text text-anchor="start" x="1231" y="-715.3" font-family="Times,serif" font-size="14.00">phone_number :varchar(255)</text>
<text text-anchor="start" x="1231" y="-700.3" font-family="Times,serif" font-size="14.00">address :varchar(255)</text>
<text text-anchor="start" x="1231" y="-685.3" font-family="Times,serif" font-size="14.00">activated :tinyint(1)</text>
<text text-anchor="start" x="1231" y="-670.3" font-family="Times,serif" font-size="14.00">first_name :varchar(255)</text>
<text text-anchor="start" x="1231" y="-655.3" font-family="Times,serif" font-size="14.00">last_name :varchar(255)</text>
<text text-anchor="start" x="1231" y="-640.3" font-family="Times,serif" font-size="14.00">middle_name :varchar(255)</text>
<text text-anchor="start" x="1231" y="-625.3" font-family="Times,serif" font-size="14.00">profile_image :varchar(255)</text>
<text text-anchor="start" x="1231" y="-610.3" font-family="Times,serif" font-size="14.00">birthday :date</text>
<text text-anchor="start" x="1231" y="-595.3" font-family="Times,serif" font-size="14.00">about :text</text>
<text text-anchor="start" x="1231" y="-580.3" font-family="Times,serif" font-size="14.00">signature :varchar(255)</text>
<text text-anchor="start" x="1231" y="-565.3" font-family="Times,serif" font-size="14.00">country_id :bigint(20)</text>
<text text-anchor="start" x="1231" y="-550.3" font-family="Times,serif" font-size="14.00">facebook :varchar(255)</text>
<text text-anchor="start" x="1231" y="-535.3" font-family="Times,serif" font-size="14.00">twitter :varchar(255)</text>
<text text-anchor="start" x="1231" y="-520.3" font-family="Times,serif" font-size="14.00">gmail :varchar(255)</text>
<text text-anchor="start" x="1231" y="-505.3" font-family="Times,serif" font-size="14.00">password_updated_at :datetime</text>
<text text-anchor="start" x="1231" y="-490.3" font-family="Times,serif" font-size="14.00">created_at :datetime</text>
<text text-anchor="start" x="1231" y="-475.3" font-family="Times,serif" font-size="14.00">updated_at :datetime</text>
</g>
<!-- Security::Role&#45;&gt;Security::User -->
<g id="edge1" class="edge"><title>Security::Role&#45;&gt;Security::User</title>
<path fill="none" stroke="#23ec8c" d="M1345.5,-901.019C1345.5,-878.912 1345.5,-852.044 1345.5,-824.078"/>
<polygon fill="#23ec8c" stroke="#23ec8c" points="1345.5,-901.274 1341,-911.274 1345.5,-906.274 1345.5,-911.274 1345.5,-911.274 1345.5,-911.274 1345.5,-906.274 1350,-911.274 1345.5,-901.274 1345.5,-901.274"/>
<polygon fill="#23ec8c" stroke="#23ec8c" points="1345.5,-823.732 1350,-813.732 1345.5,-818.732 1345.5,-813.732 1345.5,-813.732 1345.5,-813.732 1345.5,-818.732 1341,-813.732 1345.5,-823.732 1345.5,-823.732"/>
</g>
<!-- Security::User&#45;&gt;Security::ActivateAccountToken -->
<g id="edge3" class="edge"><title>Security::User&#45;&gt;Security::ActivateAccountToken</title>
<path fill="none" stroke="#bbc7bc" d="M1338.36,-458.952C1337.26,-431.18 1336.18,-404.035 1335.26,-380.736"/>
<ellipse fill="none" stroke="#bbc7bc" cx="1338.52" cy="-463.076" rx="4" ry="4"/>
<polygon fill="#bbc7bc" stroke="#bbc7bc" points="1335.26,-380.648 1339.36,-370.478 1335.06,-375.652 1334.86,-370.656 1334.86,-370.656 1334.86,-370.656 1335.06,-375.652 1330.36,-370.833 1335.26,-380.648 1335.26,-380.648"/>
</g>
<!-- Security::User&#45;&gt;Security::ResetPasswordToken -->
<g id="edge2" class="edge"><title>Security::User&#45;&gt;Security::ResetPasswordToken</title>
<path fill="none" stroke="#3b82d7" d="M1473.11,-470.469C1497.67,-437.934 1522.05,-405.648 1542.37,-378.726"/>
<ellipse fill="none" stroke="#3b82d7" cx="1470.46" cy="-473.982" rx="4.00002" ry="4.00002"/>
<polygon fill="#3b82d7" stroke="#3b82d7" points="1542.52,-378.529 1552.14,-373.26 1545.53,-374.539 1548.54,-370.548 1548.54,-370.548 1548.54,-370.548 1545.53,-374.539 1544.95,-367.837 1542.52,-378.529 1542.52,-378.529"/>
</g>
<!-- Security -->
<g id="node13" class="node"><title>Security</title>
<polygon fill="none" stroke="black" stroke-dasharray="1,5" points="1869,-975 1792,-975 1792,-939 1869,-939 1869,-975"/>
<text text-anchor="middle" x="1830.5" y="-953.3" font-family="Times,serif" font-size="14.00">Security</text>
</g>
<!-- Vndb::Character -->
<g id="node14" class="node"><title>Vndb::Character</title>
<path fill="none" stroke="black" d="M1950,-482.5C1950,-482.5 2123,-482.5 2123,-482.5 2129,-482.5 2135,-488.5 2135,-494.5 2135,-494.5 2135,-786.5 2135,-786.5 2135,-792.5 2129,-798.5 2123,-798.5 2123,-798.5 1950,-798.5 1950,-798.5 1944,-798.5 1938,-792.5 1938,-786.5 1938,-786.5 1938,-494.5 1938,-494.5 1938,-488.5 1944,-482.5 1950,-482.5"/>
<text text-anchor="middle" x="2036.5" y="-783.3" font-family="Times,serif" font-size="14.00">Vndb::Character</text>
<polyline fill="none" stroke="black" points="1938,-775.5 2135,-775.5 "/>
<text text-anchor="start" x="1946" y="-760.3" font-family="Times,serif" font-size="14.00">id :bigint(20)</text>
<text text-anchor="start" x="1946" y="-745.3" font-family="Times,serif" font-size="14.00">novel_id :bigint(20)</text>
<text text-anchor="start" x="1946" y="-730.3" font-family="Times,serif" font-size="14.00">name :varchar(255)</text>
<text text-anchor="start" x="1946" y="-715.3" font-family="Times,serif" font-size="14.00">name_en :varchar(255)</text>
<text text-anchor="start" x="1946" y="-700.3" font-family="Times,serif" font-size="14.00">birthday_day :int(11)</text>
<text text-anchor="start" x="1946" y="-685.3" font-family="Times,serif" font-size="14.00">birthday_month :int(11)</text>
<text text-anchor="start" x="1946" y="-670.3" font-family="Times,serif" font-size="14.00">gender :int(11)</text>
<text text-anchor="start" x="1946" y="-655.3" font-family="Times,serif" font-size="14.00">weight :int(11)</text>
<text text-anchor="start" x="1946" y="-640.3" font-family="Times,serif" font-size="14.00">height :int(11)</text>
<text text-anchor="start" x="1946" y="-625.3" font-family="Times,serif" font-size="14.00">bust :int(11)</text>
<text text-anchor="start" x="1946" y="-610.3" font-family="Times,serif" font-size="14.00">waist :int(11)</text>
<text text-anchor="start" x="1946" y="-595.3" font-family="Times,serif" font-size="14.00">hip :int(11)</text>
<text text-anchor="start" x="1946" y="-580.3" font-family="Times,serif" font-size="14.00">blood_type :varchar(255)</text>
<text text-anchor="start" x="1946" y="-565.3" font-family="Times,serif" font-size="14.00">image :varchar(255)</text>
<text text-anchor="start" x="1946" y="-550.3" font-family="Times,serif" font-size="14.00">role :int(11)</text>
<text text-anchor="start" x="1946" y="-535.3" font-family="Times,serif" font-size="14.00">description :text</text>
<text text-anchor="start" x="1946" y="-520.3" font-family="Times,serif" font-size="14.00">description_en :text</text>
<text text-anchor="start" x="1946" y="-505.3" font-family="Times,serif" font-size="14.00">created_at :datetime</text>
<text text-anchor="start" x="1946" y="-490.3" font-family="Times,serif" font-size="14.00">updated_at :datetime</text>
</g>
<!-- Vndb::Person -->
<g id="node17" class="node"><title>Vndb::Person</title>
<path fill="none" stroke="black" d="M1844.5,-204.5C1844.5,-204.5 2008.5,-204.5 2008.5,-204.5 2014.5,-204.5 2020.5,-210.5 2020.5,-216.5 2020.5,-216.5 2020.5,-403.5 2020.5,-403.5 2020.5,-409.5 2014.5,-415.5 2008.5,-415.5 2008.5,-415.5 1844.5,-415.5 1844.5,-415.5 1838.5,-415.5 1832.5,-409.5 1832.5,-403.5 1832.5,-403.5 1832.5,-216.5 1832.5,-216.5 1832.5,-210.5 1838.5,-204.5 1844.5,-204.5"/>
<text text-anchor="middle" x="1926.5" y="-400.3" font-family="Times,serif" font-size="14.00">Vndb::Person</text>
<polyline fill="none" stroke="black" points="1832.5,-392.5 2020.5,-392.5 "/>
<text text-anchor="start" x="1840.5" y="-377.3" font-family="Times,serif" font-size="14.00">id :bigint(20)</text>
<text text-anchor="start" x="1840.5" y="-362.3" font-family="Times,serif" font-size="14.00">country_id :bigint(20)</text>
<text text-anchor="start" x="1840.5" y="-347.3" font-family="Times,serif" font-size="14.00">name :varchar(255)</text>
<text text-anchor="start" x="1840.5" y="-332.3" font-family="Times,serif" font-size="14.00">name_en :varchar(255)</text>
<text text-anchor="start" x="1840.5" y="-317.3" font-family="Times,serif" font-size="14.00">gender :int(11)</text>
<text text-anchor="start" x="1840.5" y="-302.3" font-family="Times,serif" font-size="14.00">birthday_day :int(11)</text>
<text text-anchor="start" x="1840.5" y="-287.3" font-family="Times,serif" font-size="14.00">birthday_month :int(11)</text>
<text text-anchor="start" x="1840.5" y="-272.3" font-family="Times,serif" font-size="14.00">birthday_year :int(11)</text>
<text text-anchor="start" x="1840.5" y="-257.3" font-family="Times,serif" font-size="14.00">link :varchar(255)</text>
<text text-anchor="start" x="1840.5" y="-242.3" font-family="Times,serif" font-size="14.00">twitter :varchar(255)</text>
<text text-anchor="start" x="1840.5" y="-227.3" font-family="Times,serif" font-size="14.00">created_at :datetime</text>
<text text-anchor="start" x="1840.5" y="-212.3" font-family="Times,serif" font-size="14.00">updated_at :datetime</text>
</g>
<!-- Vndb::Character&#45;&gt;Vndb::Person -->
<g id="edge5" class="edge"><title>Vndb::Character&#45;&gt;Vndb::Person</title>
<path fill="none" stroke="#05465a" d="M1980.72,-472.926C1975.33,-456.83 1969.95,-440.764 1964.79,-425.347"/>
<polygon fill="#05465a" stroke="#05465a" points="1980.74,-472.983 1979.65,-483.895 1982.33,-477.725 1983.92,-482.466 1983.92,-482.466 1983.92,-482.466 1982.33,-477.725 1988.18,-481.037 1980.74,-472.983 1980.74,-472.983"/>
<polygon fill="#05465a" stroke="#05465a" points="1964.78,-425.319 1965.87,-414.408 1963.19,-420.578 1961.61,-415.836 1961.61,-415.836 1961.61,-415.836 1963.19,-420.578 1957.34,-417.265 1964.78,-425.319 1964.78,-425.319"/>
</g>
<!-- Vndb::VoiceActress -->
<g id="node21" class="node"><title>Vndb::VoiceActress</title>
<path fill="none" stroke="black" d="M1955,-15.5C1955,-15.5 2118,-15.5 2118,-15.5 2124,-15.5 2130,-21.5 2130,-27.5 2130,-27.5 2130,-139.5 2130,-139.5 2130,-145.5 2124,-151.5 2118,-151.5 2118,-151.5 1955,-151.5 1955,-151.5 1949,-151.5 1943,-145.5 1943,-139.5 1943,-139.5 1943,-27.5 1943,-27.5 1943,-21.5 1949,-15.5 1955,-15.5"/>
<text text-anchor="middle" x="2036.5" y="-136.3" font-family="Times,serif" font-size="14.00">Vndb::VoiceActress</text>
<polyline fill="none" stroke="black" points="1943,-128.5 2130,-128.5 "/>
<text text-anchor="start" x="1951" y="-113.3" font-family="Times,serif" font-size="14.00">id :bigint(20)</text>
<text text-anchor="start" x="1951" y="-98.3" font-family="Times,serif" font-size="14.00">person_id :bigint(20)</text>
<text text-anchor="start" x="1951" y="-83.3" font-family="Times,serif" font-size="14.00">character_id :bigint(20)</text>
<text text-anchor="start" x="1951" y="-68.3" font-family="Times,serif" font-size="14.00">alias :varchar(255)</text>
<text text-anchor="start" x="1951" y="-53.3" font-family="Times,serif" font-size="14.00">alias_en :varchar(255)</text>
<text text-anchor="start" x="1951" y="-38.3" font-family="Times,serif" font-size="14.00">created_at :datetime</text>
<text text-anchor="start" x="1951" y="-23.3" font-family="Times,serif" font-size="14.00">updated_at :datetime</text>
</g>
<!-- Vndb::Character&#45;&gt;Vndb::VoiceActress -->
<g id="edge4" class="edge"><title>Vndb::Character&#45;&gt;Vndb::VoiceActress</title>
<path fill="none" stroke="#e058a3" d="M2036.5,-474.267C2036.5,-370.808 2036.5,-242.307 2036.5,-161.825"/>
<ellipse fill="none" stroke="#e058a3" cx="2036.5" cy="-478.314" rx="4" ry="4"/>
<polygon fill="#e058a3" stroke="#e058a3" points="2036.5,-161.767 2041,-151.767 2036.5,-156.767 2036.5,-151.767 2036.5,-151.767 2036.5,-151.767 2036.5,-156.767 2032,-151.767 2036.5,-161.767 2036.5,-161.767"/>
</g>
<!-- Vndb::Company -->
<g id="node15" class="node"><title>Vndb::Company</title>
<path fill="none" stroke="black" d="M2192.5,-242C2192.5,-242 2350.5,-242 2350.5,-242 2356.5,-242 2362.5,-248 2362.5,-254 2362.5,-254 2362.5,-366 2362.5,-366 2362.5,-372 2356.5,-378 2350.5,-378 2350.5,-378 2192.5,-378 2192.5,-378 2186.5,-378 2180.5,-372 2180.5,-366 2180.5,-366 2180.5,-254 2180.5,-254 2180.5,-248 2186.5,-242 2192.5,-242"/>
<text text-anchor="middle" x="2271.5" y="-362.8" font-family="Times,serif" font-size="14.00">Vndb::Company</text>
<polyline fill="none" stroke="black" points="2180.5,-355 2362.5,-355 "/>
<text text-anchor="start" x="2188.5" y="-339.8" font-family="Times,serif" font-size="14.00">id :bigint(20)</text>
<text text-anchor="start" x="2188.5" y="-324.8" font-family="Times,serif" font-size="14.00">name :varchar(255)</text>
<text text-anchor="start" x="2188.5" y="-309.8" font-family="Times,serif" font-size="14.00">name_en :varchar(255)</text>
<text text-anchor="start" x="2188.5" y="-294.8" font-family="Times,serif" font-size="14.00">country_id :bigint(20)</text>
<text text-anchor="start" x="2188.5" y="-279.8" font-family="Times,serif" font-size="14.00">link :varchar(255)</text>
<text text-anchor="start" x="2188.5" y="-264.8" font-family="Times,serif" font-size="14.00">created_at :datetime</text>
<text text-anchor="start" x="2188.5" y="-249.8" font-family="Times,serif" font-size="14.00">updated_at :datetime</text>
</g>
<!-- Vndb::Release -->
<g id="node18" class="node"><title>Vndb::Release</title>
<path fill="none" stroke="black" d="M2165,-565C2165,-565 2330,-565 2330,-565 2336,-565 2342,-571 2342,-577 2342,-577 2342,-704 2342,-704 2342,-710 2336,-716 2330,-716 2330,-716 2165,-716 2165,-716 2159,-716 2153,-710 2153,-704 2153,-704 2153,-577 2153,-577 2153,-571 2159,-565 2165,-565"/>
<text text-anchor="middle" x="2247.5" y="-700.8" font-family="Times,serif" font-size="14.00">Vndb::Release</text>
<polyline fill="none" stroke="black" points="2153,-693 2342,-693 "/>
<text text-anchor="start" x="2161" y="-677.8" font-family="Times,serif" font-size="14.00">id :bigint(20)</text>
<text text-anchor="start" x="2161" y="-662.8" font-family="Times,serif" font-size="14.00">novel_id :bigint(20)</text>
<text text-anchor="start" x="2161" y="-647.8" font-family="Times,serif" font-size="14.00">voiced :int(11)</text>
<text text-anchor="start" x="2161" y="-632.8" font-family="Times,serif" font-size="14.00">animation_story :int(11)</text>
<text text-anchor="start" x="2161" y="-617.8" font-family="Times,serif" font-size="14.00">animation_ero :int(11)</text>
<text text-anchor="start" x="2161" y="-602.8" font-family="Times,serif" font-size="14.00">released :date</text>
<text text-anchor="start" x="2161" y="-587.8" font-family="Times,serif" font-size="14.00">created_at :datetime</text>
<text text-anchor="start" x="2161" y="-572.8" font-family="Times,serif" font-size="14.00">updated_at :datetime</text>
</g>
<!-- Vndb::Company&#45;&gt;Vndb::Release -->
<g id="edge6" class="edge"><title>Vndb::Company&#45;&gt;Vndb::Release</title>
<path fill="none" stroke="#2f2cc6" d="M2234.27,-387.847C2228.56,-402.83 2223.55,-418.657 2220.5,-434 2212.63,-473.523 2216.81,-517.795 2224.01,-555.096"/>
<polygon fill="#2f2cc6" stroke="#2f2cc6" points="2234.43,-387.436 2242.29,-379.792 2236.27,-382.786 2238.11,-378.137 2238.11,-378.137 2238.11,-378.137 2236.27,-382.786 2233.92,-376.482 2234.43,-387.436 2234.43,-387.436"/>
<polygon fill="#2f2cc6" stroke="#2f2cc6" points="2224.02,-555.12 2221.6,-565.816 2225.01,-560.02 2226.01,-564.92 2226.01,-564.92 2226.01,-564.92 2225.01,-560.02 2230.42,-564.025 2224.02,-555.12 2224.02,-555.12"/>
<text text-anchor="middle" x="2261" y="-437.8" font-family="Times,serif" font-size="14.00">developeds</text>
</g>
<!-- Vndb::Company&#45;&gt;Vndb::Release -->
<g id="edge7" class="edge"><title>Vndb::Company&#45;&gt;Vndb::Release</title>
<path fill="none" stroke="#b2fee8" d="M2293.25,-387.968C2296.68,-403.109 2299.69,-418.963 2301.5,-434 2306.37,-474.512 2296.95,-518.382 2284.68,-555.144"/>
<polygon fill="#b2fee8" stroke="#b2fee8" points="2293.23,-387.872 2295.33,-377.108 2292.09,-383.004 2290.95,-378.137 2290.95,-378.137 2290.95,-378.137 2292.09,-383.004 2286.57,-379.165 2293.23,-387.872 2293.23,-387.872"/>
<polygon fill="#b2fee8" stroke="#b2fee8" points="2284.6,-555.372 2277.08,-563.35 2282.96,-560.097 2281.33,-564.822 2281.33,-564.822 2281.33,-564.822 2282.96,-560.097 2285.58,-566.294 2284.6,-555.372 2284.6,-555.372"/>
<text text-anchor="middle" x="2340.5" y="-437.8" font-family="Times,serif" font-size="14.00">publisheds</text>
</g>
<!-- Vndb::Novel -->
<g id="node16" class="node"><title>Vndb::Novel</title>
<path fill="none" stroke="black" d="M1923,-851.5C1923,-851.5 2150,-851.5 2150,-851.5 2156,-851.5 2162,-857.5 2162,-863.5 2162,-863.5 2162,-1050.5 2162,-1050.5 2162,-1056.5 2156,-1062.5 2150,-1062.5 2150,-1062.5 1923,-1062.5 1923,-1062.5 1917,-1062.5 1911,-1056.5 1911,-1050.5 1911,-1050.5 1911,-863.5 1911,-863.5 1911,-857.5 1917,-851.5 1923,-851.5"/>
<text text-anchor="middle" x="2036.5" y="-1047.3" font-family="Times,serif" font-size="14.00">Vndb::Novel</text>
<polyline fill="none" stroke="black" points="1911,-1039.5 2162,-1039.5 "/>
<text text-anchor="start" x="1919" y="-1024.3" font-family="Times,serif" font-size="14.00">id :bigint(20)</text>
<text text-anchor="start" x="1919" y="-1009.3" font-family="Times,serif" font-size="14.00">product_id :bigint(20)</text>
<text text-anchor="start" x="1919" y="-994.3" font-family="Times,serif" font-size="14.00">title :varchar(255)</text>
<text text-anchor="start" x="1919" y="-979.3" font-family="Times,serif" font-size="14.00">title_en :varchar(255)</text>
<text text-anchor="start" x="1919" y="-964.3" font-family="Times,serif" font-size="14.00">length :int(11)</text>
<text text-anchor="start" x="1919" y="-949.3" font-family="Times,serif" font-size="14.00">description :text</text>
<text text-anchor="start" x="1919" y="-934.3" font-family="Times,serif" font-size="14.00">description_en :text</text>
<text text-anchor="start" x="1919" y="-919.3" font-family="Times,serif" font-size="14.00">image :varchar(255)</text>
<text text-anchor="start" x="1919" y="-904.3" font-family="Times,serif" font-size="14.00">image_description :varchar(255)</text>
<text text-anchor="start" x="1919" y="-889.3" font-family="Times,serif" font-size="14.00">image_nsfw :tinyint(1)</text>
<text text-anchor="start" x="1919" y="-874.3" font-family="Times,serif" font-size="14.00">created_at :datetime</text>
<text text-anchor="start" x="1919" y="-859.3" font-family="Times,serif" font-size="14.00">updated_at :datetime</text>
</g>
<!-- Vndb::Novel&#45;&gt;Vndb::Character -->
<g id="edge9" class="edge"><title>Vndb::Novel&#45;&gt;Vndb::Character</title>
<path fill="none" stroke="#a392ed" d="M2036.5,-843.255C2036.5,-832.004 2036.5,-820.421 2036.5,-808.765"/>
<ellipse fill="none" stroke="#a392ed" cx="2036.5" cy="-847.276" rx="4" ry="4"/>
<polygon fill="#a392ed" stroke="#a392ed" points="2036.5,-808.509 2041,-798.509 2036.5,-803.509 2036.5,-798.509 2036.5,-798.509 2036.5,-798.509 2036.5,-803.509 2032,-798.509 2036.5,-808.509 2036.5,-808.509"/>
</g>
<!-- Vndb::Novel&#45;&gt;Vndb::Person -->
<g id="edge11" class="edge"><title>Vndb::Novel&#45;&gt;Vndb::Person</title>
<path fill="none" stroke="#6a1bce" d="M1941.78,-842.409C1936.95,-833.152 1932.76,-823.64 1929.5,-814 1886.42,-686.494 1894.12,-530.208 1907.08,-426.007"/>
<polygon fill="#6a1bce" stroke="#6a1bce" points="1941.8,-842.433 1942.66,-853.365 1944.2,-846.818 1946.6,-851.202 1946.6,-851.202 1946.6,-851.202 1944.2,-846.818 1950.55,-849.039 1941.8,-842.433 1941.8,-842.433"/>
<polygon fill="#6a1bce" stroke="#6a1bce" points="1907.12,-425.692 1912.85,-416.345 1907.75,-420.733 1908.39,-415.773 1908.39,-415.773 1908.39,-415.773 1907.75,-420.733 1903.92,-415.202 1907.12,-425.692 1907.12,-425.692"/>
</g>
<!-- Vndb::Novel&#45;&gt;Vndb::Release -->
<g id="edge8" class="edge"><title>Vndb::Novel&#45;&gt;Vndb::Release</title>
<path fill="none" stroke="#26be67" d="M2123.19,-844.429C2130.54,-834.245 2137.74,-824 2144.5,-814 2163.7,-785.583 2183.35,-753.546 2200.27,-724.864"/>
<ellipse fill="none" stroke="#26be67" cx="2120.68" cy="-847.874" rx="4.00002" ry="4.00002"/>
<polygon fill="#26be67" stroke="#26be67" points="2200.36,-724.701 2209.31,-718.356 2202.89,-720.389 2205.43,-716.078 2205.43,-716.078 2205.43,-716.078 2202.89,-720.389 2201.54,-713.799 2200.36,-724.701 2200.36,-724.701"/>
</g>
<!-- Vndb::Staff -->
<g id="node19" class="node"><title>Vndb::Staff</title>
<path fill="none" stroke="black" d="M1750.5,-0.5C1750.5,-0.5 1902.5,-0.5 1902.5,-0.5 1908.5,-0.5 1914.5,-6.5 1914.5,-12.5 1914.5,-12.5 1914.5,-154.5 1914.5,-154.5 1914.5,-160.5 1908.5,-166.5 1902.5,-166.5 1902.5,-166.5 1750.5,-166.5 1750.5,-166.5 1744.5,-166.5 1738.5,-160.5 1738.5,-154.5 1738.5,-154.5 1738.5,-12.5 1738.5,-12.5 1738.5,-6.5 1744.5,-0.5 1750.5,-0.5"/>
<text text-anchor="middle" x="1826.5" y="-151.3" font-family="Times,serif" font-size="14.00">Vndb::Staff</text>
<polyline fill="none" stroke="black" points="1738.5,-143.5 1914.5,-143.5 "/>
<text text-anchor="start" x="1746.5" y="-128.3" font-family="Times,serif" font-size="14.00">id :bigint(20)</text>
<text text-anchor="start" x="1746.5" y="-113.3" font-family="Times,serif" font-size="14.00">person_id :bigint(20)</text>
<text text-anchor="start" x="1746.5" y="-98.3" font-family="Times,serif" font-size="14.00">novel_id :bigint(20)</text>
<text text-anchor="start" x="1746.5" y="-83.3" font-family="Times,serif" font-size="14.00">position :varchar(255)</text>
<text text-anchor="start" x="1746.5" y="-68.3" font-family="Times,serif" font-size="14.00">note :varchar(255)</text>
<text text-anchor="start" x="1746.5" y="-53.3" font-family="Times,serif" font-size="14.00">alias :varchar(255)</text>
<text text-anchor="start" x="1746.5" y="-38.3" font-family="Times,serif" font-size="14.00">alias_en :varchar(255)</text>
<text text-anchor="start" x="1746.5" y="-23.3" font-family="Times,serif" font-size="14.00">created_at :datetime</text>
<text text-anchor="start" x="1746.5" y="-8.3" font-family="Times,serif" font-size="14.00">updated_at :datetime</text>
</g>
<!-- Vndb::Novel&#45;&gt;Vndb::Staff -->
<g id="edge10" class="edge"><title>Vndb::Novel&#45;&gt;Vndb::Staff</title>
<path fill="none" stroke="#4822bd" d="M1911.96,-844.749C1904.65,-834.876 1898.04,-824.591 1892.5,-814 1784.27,-607.132 1797.33,-321.782 1813.38,-176.915"/>
<ellipse fill="none" stroke="#4822bd" cx="1914.43" cy="-847.995" rx="4.00002" ry="4.00002"/>
<polygon fill="#4822bd" stroke="#4822bd" points="1813.41,-176.666 1819.01,-167.239 1813.97,-171.699 1814.54,-166.731 1814.54,-166.731 1814.54,-166.731 1813.97,-171.699 1810.07,-166.222 1813.41,-176.666 1813.41,-176.666"/>
</g>
<!-- Vndb::Tag -->
<g id="node20" class="node"><title>Vndb::Tag</title>
<path fill="none" stroke="black" d="M2372.5,-572.5C2372.5,-572.5 2518.5,-572.5 2518.5,-572.5 2524.5,-572.5 2530.5,-578.5 2530.5,-584.5 2530.5,-584.5 2530.5,-696.5 2530.5,-696.5 2530.5,-702.5 2524.5,-708.5 2518.5,-708.5 2518.5,-708.5 2372.5,-708.5 2372.5,-708.5 2366.5,-708.5 2360.5,-702.5 2360.5,-696.5 2360.5,-696.5 2360.5,-584.5 2360.5,-584.5 2360.5,-578.5 2366.5,-572.5 2372.5,-572.5"/>
<text text-anchor="middle" x="2445.5" y="-693.3" font-family="Times,serif" font-size="14.00">Vndb::Tag</text>
<polyline fill="none" stroke="black" points="2360.5,-685.5 2530.5,-685.5 "/>
<text text-anchor="start" x="2368.5" y="-670.3" font-family="Times,serif" font-size="14.00">id :bigint(20)</text>
<text text-anchor="start" x="2368.5" y="-655.3" font-family="Times,serif" font-size="14.00">tag :varchar(255)</text>
<text text-anchor="start" x="2368.5" y="-640.3" font-family="Times,serif" font-size="14.00">tag_en :varchar(255)</text>
<text text-anchor="start" x="2368.5" y="-625.3" font-family="Times,serif" font-size="14.00">description :text</text>
<text text-anchor="start" x="2368.5" y="-610.3" font-family="Times,serif" font-size="14.00">description_en :text</text>
<text text-anchor="start" x="2368.5" y="-595.3" font-family="Times,serif" font-size="14.00">created_at :datetime</text>
<text text-anchor="start" x="2368.5" y="-580.3" font-family="Times,serif" font-size="14.00">updated_at :datetime</text>
</g>
<!-- Vndb::Novel&#45;&gt;Vndb::Tag -->
<g id="edge12" class="edge"><title>Vndb::Novel&#45;&gt;Vndb::Tag</title>
<path fill="none" stroke="#bc885a" d="M2171.21,-851.134C2171.31,-851.089 2171.4,-851.045 2171.5,-851 2245.67,-816.813 2285.86,-862.597 2351.5,-814 2383.45,-790.349 2405.79,-752.482 2420.65,-718.243"/>
<polygon fill="#bc885a" stroke="#bc885a" points="2171.21,-851.136 2160.24,-851.485 2166.71,-853.332 2162.22,-855.528 2162.22,-855.528 2162.22,-855.528 2166.71,-853.332 2164.2,-859.571 2171.21,-851.136 2171.21,-851.136"/>
<polygon fill="#bc885a" stroke="#bc885a" points="2420.78,-717.922 2428.79,-710.435 2422.71,-713.31 2424.64,-708.698 2424.64,-708.698 2424.64,-708.698 2422.71,-713.31 2420.49,-706.96 2420.78,-717.922 2420.78,-717.922"/>
</g>
<!-- Vndb::Person&#45;&gt;Vndb::Staff -->
<g id="edge14" class="edge"><title>Vndb::Person&#45;&gt;Vndb::Staff</title>
<path fill="none" stroke="#c33385" d="M1876.55,-196.864C1873.42,-189.83 1870.28,-182.796 1867.2,-175.871"/>
<ellipse fill="none" stroke="#c33385" cx="1878.24" cy="-200.655" rx="4.00002" ry="4.00002"/>
<polygon fill="#c33385" stroke="#c33385" points="1867.1,-175.642 1867.14,-164.676 1865.06,-171.074 1863.03,-166.507 1863.03,-166.507 1863.03,-166.507 1865.06,-171.074 1858.92,-168.338 1867.1,-175.642 1867.1,-175.642"/>
</g>
<!-- Vndb::Person&#45;&gt;Vndb::VoiceActress -->
<g id="edge13" class="edge"><title>Vndb::Person&#45;&gt;Vndb::VoiceActress</title>
<path fill="none" stroke="#9ef671" d="M1981.51,-196.727C1987.49,-184.533 1993.46,-172.338 1999.15,-160.72"/>
<ellipse fill="none" stroke="#9ef671" cx="1979.56" cy="-200.717" rx="4.00002" ry="4.00002"/>
<polygon fill="#9ef671" stroke="#9ef671" points="1999.25,-160.517 2007.69,-153.517 2001.45,-156.027 2003.65,-151.537 2003.65,-151.537 2003.65,-151.537 2001.45,-156.027 1999.61,-149.557 1999.25,-160.517 1999.25,-160.517"/>
</g>
<!-- Vndb::Release&#45;&gt;Vndb::Company -->
<g id="edge15" class="edge"><title>Vndb::Release&#45;&gt;Vndb::Company</title>
<path fill="none" stroke="#36198d" d="M2286.47,-555.848C2303.44,-525.389 2325.46,-492.267 2351.5,-467 2363.21,-455.637 2375.26,-463.086 2383.5,-449 2397.5,-425.055 2387.86,-400.909 2369.45,-379.656"/>
<polygon fill="#36198d" stroke="#36198d" points="2286.38,-556.004 2277.64,-562.623 2283.99,-560.392 2281.59,-564.78 2281.59,-564.78 2281.59,-564.78 2283.99,-560.392 2285.54,-566.937 2286.38,-556.004 2286.38,-556.004"/>
<polygon fill="#36198d" stroke="#36198d" points="2369.4,-379.598 2365.9,-369.205 2366,-375.931 2362.6,-372.265 2362.6,-372.265 2362.6,-372.265 2366,-375.931 2359.3,-375.324 2369.4,-379.598 2369.4,-379.598"/>
<text text-anchor="middle" x="2428" y="-437.8" font-family="Times,serif" font-size="14.00">developers</text>
</g>
<!-- Vndb::Release&#45;&gt;Vndb::Company -->
<g id="edge16" class="edge"><title>Vndb::Release&#45;&gt;Vndb::Company</title>
<path fill="none" stroke="#690692" d="M2194.26,-556.319C2169.63,-516 2144.49,-471.519 2138.5,-449 2136.79,-442.557 2135.83,-440.108 2138.5,-434 2146.62,-415.427 2159.08,-398.409 2173.19,-383.341"/>
<polygon fill="#690692" stroke="#690692" points="2194.27,-556.33 2195.67,-567.206 2196.89,-560.59 2199.5,-564.85 2199.5,-564.85 2199.5,-564.85 2196.89,-560.59 2203.34,-562.495 2194.27,-556.33 2194.27,-556.33"/>
<polygon fill="#690692" stroke="#690692" points="2173.26,-383.27 2183.46,-379.241 2176.74,-379.686 2180.23,-376.103 2180.23,-376.103 2180.23,-376.103 2176.74,-379.686 2177.01,-372.965 2173.26,-383.27 2173.26,-383.27"/>
<text text-anchor="middle" x="2176.5" y="-437.8" font-family="Times,serif" font-size="14.00">publishers</text>
</g>
<!-- Vndb -->
<g id="node22" class="node"><title>Vndb</title>
<polygon fill="none" stroke="black" stroke-dasharray="1,5" points="2234.5,-975 2180.5,-975 2180.5,-939 2234.5,-939 2234.5,-975"/>
<text text-anchor="middle" x="2207.5" y="-953.3" font-family="Times,serif" font-size="14.00">Vndb</text>
</g>
</g>
</svg>
