<?xml version="1.0" encoding="UTF-8" standalone="no"?>
<!DOCTYPE svg PUBLIC "-//W3C//DTD SVG 1.1//EN"
 "http://www.w3.org/Graphics/SVG/1.1/DTD/svg11.dtd">
<!-- Generated by graphviz version 2.38.0 (20140413.2041)
 -->
<!-- Title: models_diagram Pages: 1 -->
<svg width="2539pt" height="319pt"
 viewBox="0.00 0.00 2538.50 319.00" xmlns="http://www.w3.org/2000/svg" xmlns:xlink="http://www.w3.org/1999/xlink">
<g id="graph0" class="graph" transform="scale(1 1) rotate(0) translate(4 315)">
<title>models_diagram</title>
<polygon fill="none" stroke="none" points="-4,4 -4,-315 2534.5,-315 2534.5,4 -4,4"/>
<!-- _diagram_info -->
<g id="node1" class="node"><title>_diagram_info</title>
<text text-anchor="start" x="8" y="-296.6" font-family="Times,serif" font-size="13.00">Models diagram</text>
<text text-anchor="start" x="8" y="-282.6" font-family="Times,serif" font-size="13.00">Date: Jun 05 2017 &#45; 12:11</text>
<text text-anchor="start" x="8" y="-268.6" font-family="Times,serif" font-size="13.00">Migration version: 20170531172419</text>
<text text-anchor="start" x="8" y="-254.6" font-family="Times,serif" font-size="13.00">Generated by RailRoady 1.5.2</text>
<text text-anchor="start" x="8" y="-240.6" font-family="Times,serif" font-size="13.00">http://railroady.prestonlee.com</text>
</g>
<!-- ApplicationRecord -->
<g id="node2" class="node"><title>ApplicationRecord</title>
<ellipse fill="none" stroke="black" cx="371.5" cy="-272" rx="96.6831" ry="18"/>
<text text-anchor="middle" x="371.5" y="-268.3" font-family="Times,serif" font-size="14.00">ApplicationRecord</text>
</g>
<!-- Bussiness::Product -->
<g id="node3" class="node"><title>Bussiness::Product</title>
<ellipse fill="none" stroke="black" cx="586.5" cy="-272" rx="100.182" ry="18"/>
<text text-anchor="middle" x="586.5" y="-268.3" font-family="Times,serif" font-size="14.00">Bussiness::Product</text>
</g>
<!-- Bussiness::Type -->
<g id="node4" class="node"><title>Bussiness::Type</title>
<ellipse fill="none" stroke="black" cx="789.5" cy="-272" rx="85.2851" ry="18"/>
<text text-anchor="middle" x="789.5" y="-268.3" font-family="Times,serif" font-size="14.00">Bussiness::Type</text>
</g>
<!-- Bussiness -->
<g id="node5" class="node"><title>Bussiness</title>
<polygon fill="none" stroke="black" stroke-dasharray="1,5" points="980.5,-290 892.5,-290 892.5,-254 980.5,-254 980.5,-290"/>
<text text-anchor="middle" x="936.5" y="-268.3" font-family="Times,serif" font-size="14.00">Bussiness</text>
</g>
<!-- General::Country -->
<g id="node6" class="node"><title>General::Country</title>
<ellipse fill="none" stroke="black" cx="1089.5" cy="-272" rx="90.9839" ry="18"/>
<text text-anchor="middle" x="1089.5" y="-268.3" font-family="Times,serif" font-size="14.00">General::Country</text>
</g>
<!-- General -->
<g id="node7" class="node"><title>General</title>
<polygon fill="none" stroke="black" stroke-dasharray="1,5" points="1271,-290 1198,-290 1198,-254 1271,-254 1271,-290"/>
<text text-anchor="middle" x="1234.5" y="-268.3" font-family="Times,serif" font-size="14.00">General</text>
</g>
<!-- Security::ActivateAccountToken -->
<g id="node8" class="node"><title>Security::ActivateAccountToken</title>
<ellipse fill="none" stroke="black" cx="1344.5" cy="-91" rx="161.372" ry="18"/>
<text text-anchor="middle" x="1344.5" y="-87.3" font-family="Times,serif" font-size="14.00">Security::ActivateAccountToken</text>
</g>
<!-- Security::InvalidToken -->
<g id="node9" class="node"><title>Security::InvalidToken</title>
<ellipse fill="none" stroke="black" cx="1710.5" cy="-272" rx="115.88" ry="18"/>
<text text-anchor="middle" x="1710.5" y="-268.3" font-family="Times,serif" font-size="14.00">Security::InvalidToken</text>
</g>
<!-- Security::ResetPasswordToken -->
<g id="node10" class="node"><title>Security::ResetPasswordToken</title>
<ellipse fill="none" stroke="black" cx="1677.5" cy="-91" rx="154.073" ry="18"/>
<text text-anchor="middle" x="1677.5" y="-87.3" font-family="Times,serif" font-size="14.00">Security::ResetPasswordToken</text>
</g>
<!-- Security::Role -->
<g id="node11" class="node"><title>Security::Role</title>
<ellipse fill="none" stroke="black" cx="1365.5" cy="-272" rx="76.0865" ry="18"/>
<text text-anchor="middle" x="1365.5" y="-268.3" font-family="Times,serif" font-size="14.00">Security::Role</text>
</g>
<!-- Security::User -->
<g id="node12" class="node"><title>Security::User</title>
<ellipse fill="none" stroke="black" cx="1365.5" cy="-178" rx="77.1866" ry="18"/>
<text text-anchor="middle" x="1365.5" y="-174.3" font-family="Times,serif" font-size="14.00">Security::User</text>
</g>
<!-- Security::Role&#45;&gt;Security::User -->
<g id="edge1" class="edge"><title>Security::Role&#45;&gt;Security::User</title>
<path fill="none" stroke="#379af7" d="M1365.5,-243.691C1365.5,-231.915 1365.5,-218.17 1365.5,-206.386"/>
<polygon fill="#379af7" stroke="#379af7" points="1365.5,-243.696 1361,-253.695 1365.5,-248.696 1365.5,-253.696 1365.5,-253.696 1365.5,-253.696 1365.5,-248.696 1370,-253.696 1365.5,-243.696 1365.5,-243.696"/>
<polygon fill="#379af7" stroke="#379af7" points="1365.5,-206.227 1370,-196.227 1365.5,-201.227 1365.5,-196.227 1365.5,-196.227 1365.5,-196.227 1365.5,-201.227 1361,-196.227 1365.5,-206.227 1365.5,-206.227"/>
</g>
<!-- Security::User&#45;&gt;Security::ActivateAccountToken -->
<g id="edge3" class="edge"><title>Security::User&#45;&gt;Security::ActivateAccountToken</title>
<path fill="none" stroke="#b99ba1" d="M1359.25,-151.694C1356.71,-141.405 1353.76,-129.499 1351.18,-119.039"/>
<ellipse fill="none" stroke="#b99ba1" cx="1360.29" cy="-155.916" rx="4.00001" ry="4.00001"/>
<polygon fill="#b99ba1" stroke="#b99ba1" points="1351.14,-118.884 1353.11,-108.096 1349.94,-114.029 1348.74,-109.175 1348.74,-109.175 1348.74,-109.175 1349.94,-114.029 1344.37,-110.255 1351.14,-118.884 1351.14,-118.884"/>
</g>
<!-- Security::User&#45;&gt;Security::ResetPasswordToken -->
<g id="edge2" class="edge"><title>Security::User&#45;&gt;Security::ResetPasswordToken</title>
<path fill="none" stroke="#cb0a2e" d="M1421.95,-161.622C1474.74,-147.238 1553.67,-125.735 1609.83,-110.436"/>
<ellipse fill="none" stroke="#cb0a2e" cx="1417.77" cy="-162.761" rx="4.00001" ry="4.00001"/>
<polygon fill="#cb0a2e" stroke="#cb0a2e" points="1610.04,-110.379 1620.87,-112.092 1614.86,-109.065 1619.69,-107.751 1619.69,-107.751 1619.69,-107.751 1614.86,-109.065 1618.5,-103.409 1610.04,-110.379 1610.04,-110.379"/>
</g>
<!-- Security -->
<g id="node13" class="node"><title>Security</title>
<polygon fill="none" stroke="black" stroke-dasharray="1,5" points="1989,-290 1912,-290 1912,-254 1989,-254 1989,-290"/>
<text text-anchor="middle" x="1950.5" y="-268.3" font-family="Times,serif" font-size="14.00">Security</text>
</g>
<!-- Vndb::Character -->
<g id="node14" class="node"><title>Vndb::Character</title>
<ellipse fill="none" stroke="black" cx="2109.5" cy="-178" rx="88.2844" ry="18"/>
<text text-anchor="middle" x="2109.5" y="-174.3" font-family="Times,serif" font-size="14.00">Vndb::Character</text>
</g>
<!-- Vndb::Person -->
<g id="node17" class="node"><title>Vndb::Person</title>
<ellipse fill="none" stroke="black" cx="2021.5" cy="-91" rx="72.5877" ry="18"/>
<text text-anchor="middle" x="2021.5" y="-87.3" font-family="Times,serif" font-size="14.00">Vndb::Person</text>
</g>
<!-- Vndb::Character&#45;&gt;Vndb::Person -->
<g id="edge5" class="edge"><title>Vndb::Character&#45;&gt;Vndb::Person</title>
<path fill="none" stroke="#d5bb7a" d="M2084.83,-153.169C2072.82,-141.567 2058.41,-127.648 2046.37,-116.021"/>
<polygon fill="#d5bb7a" stroke="#d5bb7a" points="2084.92,-153.259 2088.99,-163.443 2088.52,-156.733 2092.11,-160.207 2092.11,-160.207 2092.11,-160.207 2088.52,-156.733 2095.24,-156.97 2084.92,-153.259 2084.92,-153.259"/>
<polygon fill="#d5bb7a" stroke="#d5bb7a" points="2046.04,-115.706 2041.98,-105.522 2042.45,-112.232 2038.85,-108.758 2038.85,-108.758 2038.85,-108.758 2042.45,-112.232 2035.72,-111.995 2046.04,-115.706 2046.04,-115.706"/>
</g>
<!-- Vndb::VoiceActress -->
<g id="node21" class="node"><title>Vndb::VoiceActress</title>
<ellipse fill="none" stroke="black" cx="2117.5" cy="-18" rx="101.282" ry="18"/>
<text text-anchor="middle" x="2117.5" y="-14.3" font-family="Times,serif" font-size="14.00">Vndb::VoiceActress</text>
</g>
<!-- Vndb::Character&#45;&gt;Vndb::VoiceActress -->
<g id="edge4" class="edge"><title>Vndb::Character&#45;&gt;Vndb::VoiceActress</title>
<path fill="none" stroke="#ab0423" d="M2110.78,-151.692C2112.24,-122.85 2114.62,-75.883 2116.12,-46.2541"/>
<ellipse fill="none" stroke="#ab0423" cx="2110.57" cy="-155.796" rx="4" ry="4"/>
<polygon fill="#ab0423" stroke="#ab0423" points="2116.12,-46.1755 2121.12,-36.4159 2116.38,-41.1819 2116.63,-36.1883 2116.63,-36.1883 2116.63,-36.1883 2116.38,-41.1819 2112.14,-35.9607 2116.12,-46.1755 2116.12,-46.1755"/>
</g>
<!-- Vndb::Company -->
<g id="node15" class="node"><title>Vndb::Company</title>
<ellipse fill="none" stroke="black" cx="2332.5" cy="-91" rx="85.2851" ry="18"/>
<text text-anchor="middle" x="2332.5" y="-87.3" font-family="Times,serif" font-size="14.00">Vndb::Company</text>
</g>
<!-- Vndb::Release -->
<g id="node18" class="node"><title>Vndb::Release</title>
<ellipse fill="none" stroke="black" cx="2293.5" cy="-178" rx="77.1866" ry="18"/>
<text text-anchor="middle" x="2293.5" y="-174.3" font-family="Times,serif" font-size="14.00">Vndb::Release</text>
</g>
<!-- Vndb::Company&#45;&gt;Vndb::Release -->
<g id="edge6" class="edge"><title>Vndb::Company&#45;&gt;Vndb::Release</title>
<path fill="none" stroke="#0aa47e" d="M2291.73,-114.008C2287.65,-117.808 2284.06,-122.13 2281.5,-127 2277.7,-134.22 2278.14,-142.659 2280.28,-150.525"/>
<polygon fill="#0aa47e" stroke="#0aa47e" points="2291.74,-114.001 2302.35,-111.234 2295.64,-110.865 2299.53,-107.729 2299.53,-107.729 2299.53,-107.729 2295.64,-110.865 2296.71,-104.224 2291.74,-114.001 2291.74,-114.001"/>
<polygon fill="#0aa47e" stroke="#0aa47e" points="2280.32,-150.64 2279.48,-161.573 2282.02,-155.344 2283.71,-160.049 2283.71,-160.049 2283.71,-160.049 2282.02,-155.344 2287.95,-158.524 2280.32,-150.64 2280.32,-150.64"/>
<text text-anchor="middle" x="2322" y="-130.8" font-family="Times,serif" font-size="14.00">developeds</text>
</g>
<!-- Vndb::Company&#45;&gt;Vndb::Release -->
<g id="edge7" class="edge"><title>Vndb::Company&#45;&gt;Vndb::Release</title>
<path fill="none" stroke="#becaa5" d="M2358.97,-116.475C2364.64,-124.617 2367.59,-133.718 2362.5,-142 2358.59,-148.374 2353.11,-153.631 2346.94,-157.956"/>
<polygon fill="#becaa5" stroke="#becaa5" points="2358.94,-116.441 2356.06,-105.859 2355.76,-112.579 2352.59,-108.718 2352.59,-108.718 2352.59,-108.718 2355.76,-112.579 2349.11,-111.578 2358.94,-116.441 2358.94,-116.441"/>
<polygon fill="#becaa5" stroke="#becaa5" points="2346.71,-158.094 2335.83,-159.448 2342.44,-160.693 2338.17,-163.292 2338.17,-163.292 2338.17,-163.292 2342.44,-160.693 2340.51,-167.137 2346.71,-158.094 2346.71,-158.094"/>
<text text-anchor="middle" x="2403.5" y="-130.8" font-family="Times,serif" font-size="14.00">publisheds</text>
</g>
<!-- Vndb::Novel -->
<g id="node16" class="node"><title>Vndb::Novel</title>
<ellipse fill="none" stroke="black" cx="2109.5" cy="-272" rx="68.4888" ry="18"/>
<text text-anchor="middle" x="2109.5" y="-268.3" font-family="Times,serif" font-size="14.00">Vndb::Novel</text>
</g>
<!-- Vndb::Novel&#45;&gt;Vndb::Character -->
<g id="edge9" class="edge"><title>Vndb::Novel&#45;&gt;Vndb::Character</title>
<path fill="none" stroke="#ea5377" d="M2109.5,-245.451C2109.5,-233.315 2109.5,-218.795 2109.5,-206.427"/>
<ellipse fill="none" stroke="#ea5377" cx="2109.5" cy="-249.696" rx="4" ry="4"/>
<polygon fill="#ea5377" stroke="#ea5377" points="2109.5,-206.227 2114,-196.227 2109.5,-201.227 2109.5,-196.227 2109.5,-196.227 2109.5,-196.227 2109.5,-201.227 2105,-196.227 2109.5,-206.227 2109.5,-206.227"/>
</g>
<!-- Vndb::Novel&#45;&gt;Vndb::Person -->
<g id="edge11" class="edge"><title>Vndb::Novel&#45;&gt;Vndb::Person</title>
<path fill="none" stroke="#fa5ddd" d="M2068.57,-250.984C2047.67,-238.364 2024.24,-219.91 2012.5,-196 2000.64,-171.843 2005.57,-140.722 2011.8,-118.841"/>
<polygon fill="#fa5ddd" stroke="#fa5ddd" points="2068.66,-251.039 2075.08,-259.932 2073,-253.536 2077.33,-256.034 2077.33,-256.034 2077.33,-256.034 2073,-253.536 2079.57,-252.136 2068.66,-251.039 2068.66,-251.039"/>
<polygon fill="#fa5ddd" stroke="#fa5ddd" points="2011.82,-118.754 2019.09,-110.541 2013.31,-113.98 2014.79,-109.205 2014.79,-109.205 2014.79,-109.205 2013.31,-113.98 2010.5,-107.869 2011.82,-118.754 2011.82,-118.754"/>
</g>
<!-- Vndb::Novel&#45;&gt;Vndb::Release -->
<g id="edge8" class="edge"><title>Vndb::Novel&#45;&gt;Vndb::Release</title>
<path fill="none" stroke="#84309c" d="M2147.32,-252.088C2178.28,-236.608 2221.96,-214.771 2253.5,-199.002"/>
<ellipse fill="none" stroke="#84309c" cx="2143.46" cy="-254.019" rx="4.00002" ry="4.00002"/>
<polygon fill="#84309c" stroke="#84309c" points="2253.51,-198.994 2264.47,-198.547 2257.98,-196.758 2262.46,-194.522 2262.46,-194.522 2262.46,-194.522 2257.98,-196.758 2260.44,-190.497 2253.51,-198.994 2253.51,-198.994"/>
</g>
<!-- Vndb::Staff -->
<g id="node19" class="node"><title>Vndb::Staff</title>
<ellipse fill="none" stroke="black" cx="1930.5" cy="-18" rx="63.0888" ry="18"/>
<text text-anchor="middle" x="1930.5" y="-14.3" font-family="Times,serif" font-size="14.00">Vndb::Staff</text>
</g>
<!-- Vndb::Novel&#45;&gt;Vndb::Staff -->
<g id="edge10" class="edge"><title>Vndb::Novel&#45;&gt;Vndb::Staff</title>
<path fill="none" stroke="#418089" d="M2073.74,-251.304C2056.7,-241.29 2036.4,-228.416 2019.5,-215 1973.27,-178.302 1960.05,-164.33 1939.5,-109 1932.04,-88.9133 1929.98,-64.6699 1929.67,-46.4078"/>
<ellipse fill="none" stroke="#418089" cx="2077.36" cy="-253.407" rx="4.00002" ry="4.00002"/>
<polygon fill="#418089" stroke="#418089" points="1929.67,-46.1624 1934.18,-36.1639 1929.68,-41.1624 1929.68,-36.1624 1929.68,-36.1624 1929.68,-36.1624 1929.68,-41.1624 1925.18,-36.161 1929.67,-46.1624 1929.67,-46.1624"/>
</g>
<!-- Vndb::Tag -->
<g id="node20" class="node"><title>Vndb::Tag</title>
<ellipse fill="none" stroke="black" cx="2446.5" cy="-178" rx="57.6901" ry="18"/>
<text text-anchor="middle" x="2446.5" y="-174.3" font-family="Times,serif" font-size="14.00">Vndb::Tag</text>
</g>
<!-- Vndb::Novel&#45;&gt;Vndb::Tag -->
<g id="edge12" class="edge"><title>Vndb::Novel&#45;&gt;Vndb::Tag</title>
<path fill="none" stroke="#45527e" d="M2145.76,-250.602C2158.35,-244.202 2172.76,-237.613 2186.5,-233 2269.3,-205.201 2294.25,-214.971 2379.5,-196 2384.16,-194.963 2388.99,-193.838 2393.82,-192.677"/>
<polygon fill="#45527e" stroke="#45527e" points="2145.4,-250.794 2134.45,-251.434 2140.97,-253.108 2136.53,-255.423 2136.53,-255.423 2136.53,-255.423 2140.97,-253.108 2138.62,-259.412 2145.4,-250.794 2145.4,-250.794"/>
<polygon fill="#45527e" stroke="#45527e" points="2393.99,-192.637 2404.77,-194.632 2398.84,-191.449 2403.7,-190.261 2403.7,-190.261 2403.7,-190.261 2398.84,-191.449 2402.63,-185.889 2393.99,-192.637 2393.99,-192.637"/>
</g>
<!-- Vndb::Person&#45;&gt;Vndb::Staff -->
<g id="edge14" class="edge"><title>Vndb::Person&#45;&gt;Vndb::Staff</title>
<path fill="none" stroke="#d123ab" d="M1993.88,-68.4541C1982.94,-59.9121 1970.35,-50.0883 1959.28,-41.4586"/>
<ellipse fill="none" stroke="#d123ab" cx="1997.24" cy="-71.0721" rx="4.00002" ry="4.00002"/>
<polygon fill="#d123ab" stroke="#d123ab" points="1959.06,-41.2846 1953.95,-31.5853 1955.12,-38.2089 1951.18,-35.1332 1951.18,-35.1332 1951.18,-35.1332 1955.12,-38.2089 1948.41,-38.6811 1959.06,-41.2846 1959.06,-41.2846"/>
</g>
<!-- Vndb::Person&#45;&gt;Vndb::VoiceActress -->
<g id="edge13" class="edge"><title>Vndb::Person&#45;&gt;Vndb::VoiceActress</title>
<path fill="none" stroke="#474e46" d="M2050.53,-68.5287C2062.02,-60.0328 2075.23,-50.2594 2086.87,-41.6512"/>
<ellipse fill="none" stroke="#474e46" cx="2046.98" cy="-71.1542" rx="4.00002" ry="4.00002"/>
<polygon fill="#474e46" stroke="#474e46" points="2086.98,-41.5702 2097.7,-39.2419 2091,-38.5971 2095.02,-35.6239 2095.02,-35.6239 2095.02,-35.6239 2091,-38.5971 2092.35,-32.0059 2086.98,-41.5702 2086.98,-41.5702"/>
</g>
<!-- Vndb::Release&#45;&gt;Vndb::Company -->
<g id="edge15" class="edge"><title>Vndb::Release&#45;&gt;Vndb::Company</title>
<path fill="none" stroke="#fb8939" d="M2360.55,-163.606C2400.34,-155.336 2443.6,-145.634 2446.5,-142 2461.74,-122.876 2441.24,-110.89 2413.61,-103.467"/>
<polygon fill="#fb8939" stroke="#fb8939" points="2360.33,-163.651 2349.63,-161.266 2355.44,-164.662 2350.54,-165.673 2350.54,-165.673 2350.54,-165.673 2355.44,-164.662 2351.45,-170.08 2360.33,-163.651 2360.33,-163.651"/>
<polygon fill="#fb8939" stroke="#fb8939" points="2413.3,-103.392 2404.65,-96.6552 2408.44,-102.21 2403.58,-101.028 2403.58,-101.028 2403.58,-101.028 2408.44,-102.21 2402.52,-105.4 2413.3,-103.392 2413.3,-103.392"/>
<text text-anchor="middle" x="2491" y="-130.8" font-family="Times,serif" font-size="14.00">developers</text>
</g>
<!-- Vndb::Release&#45;&gt;Vndb::Company -->
<g id="edge16" class="edge"><title>Vndb::Release&#45;&gt;Vndb::Company</title>
<path fill="none" stroke="#431051" d="M2225.33,-163.124C2202.48,-155.26 2185.68,-143.594 2198.5,-127 2206.09,-117.172 2229.37,-109.577 2254.44,-104.013"/>
<polygon fill="#431051" stroke="#431051" points="2225.52,-163.181 2233.72,-170.456 2230.29,-164.671 2235.06,-166.161 2235.06,-166.161 2235.06,-166.161 2230.29,-164.671 2236.4,-161.865 2225.52,-163.181 2225.52,-163.181"/>
<polygon fill="#431051" stroke="#431051" points="2254.7,-103.959 2265.41,-106.309 2259.6,-102.932 2264.49,-101.905 2264.49,-101.905 2264.49,-101.905 2259.6,-102.932 2263.56,-97.5005 2254.7,-103.959 2254.7,-103.959"/>
<text text-anchor="middle" x="2236.5" y="-130.8" font-family="Times,serif" font-size="14.00">publishers</text>
</g>
<!-- Vndb -->
<g id="node22" class="node"><title>Vndb</title>
<polygon fill="none" stroke="black" stroke-dasharray="1,5" points="2249.5,-290 2195.5,-290 2195.5,-254 2249.5,-254 2249.5,-290"/>
<text text-anchor="middle" x="2222.5" y="-268.3" font-family="Times,serif" font-size="14.00">Vndb</text>
</g>
</g>
</svg>
